<svg width="50" height="50" viewBox="0 0 50 50" fill="none" xmlns="http://www.w3.org/2000/svg">
<path d="M25.0927 37.3843V25.3009L35.5093 31.3426C38.8427 33.2176 39.8844 37.5926 38.0094 40.9259C36.1344 44.2593 31.7594 45.3009 28.426 43.4259C26.3427 42.1759 25.0927 39.8843 25.0927 37.3843ZM14.676 31.3426L25.0927 25.3009L14.676 19.2593C11.3427 17.3843 7.176 18.4259 5.09267 21.7593C3.21767 25.0926 4.25936 29.2592 7.59269 31.3426C9.88436 32.5926 12.5927 32.5926 14.676 31.3426ZM25.0927 13.2176V25.3009L35.5093 19.2593C38.8427 17.3843 39.8844 13.0093 38.0094 9.67592C36.1344 6.34259 31.7594 5.30093 28.426 7.17593C26.3427 8.42593 25.0927 10.7176 25.0927 13.2176Z" fill="#A1A5B7"/>
<path opacity="0.3" d="M14.6762 19.2595C12.5929 18.0095 11.1345 15.7178 11.1345 13.2178C11.1345 9.46778 14.2596 6.34277 18.0096 6.34277C21.7596 6.34277 24.8845 9.46778 24.8845 13.2178V25.3011L14.6762 19.2595ZM35.5095 31.3428C37.5929 32.5928 40.3012 32.5928 42.3845 31.3428C45.7179 29.4678 46.7595 25.0928 44.8845 21.7595C43.0095 18.4261 38.6345 17.3845 35.3012 19.2595L24.8845 25.3011L35.5095 31.3428ZM14.6762 31.3428C12.5929 32.5928 11.1345 34.8845 11.1345 37.3845C11.1345 41.1345 14.2596 44.2595 18.0096 44.2595C21.7596 44.2595 24.8845 41.1345 24.8845 37.3845V25.3011L14.6762 31.3428Z" fill="#A1A5B7"/>
</svg>
