<svg width="50" height="50" viewBox="0 0 50 50" fill="none" xmlns="http://www.w3.org/2000/svg">
<path d="M43.7501 20.8335H27.0834V22.9168C27.0834 24.1668 26.2501 25.0002 25.0001 25.0002C23.7501 25.0002 22.9167 24.1668 22.9167 22.9168V20.8335H6.25008C5.00008 20.8335 4.16675 21.6668 4.16675 22.9168V27.0835H45.8334V22.9168C45.8334 21.6668 45.0001 20.8335 43.7501 20.8335Z" fill="#A1A5B7"/>
<path opacity="0.3" d="M25.0001 24.9998C23.7501 24.9998 22.9167 24.1665 22.9167 22.9165V6.24984C22.9167 4.99984 23.7501 4.1665 25.0001 4.1665C26.2501 4.1665 27.0834 4.99984 27.0834 6.24984V22.9165C27.0834 24.1665 26.2501 24.9998 25.0001 24.9998Z" fill="#A1A5B7"/>
<path opacity="0.3" d="M37.7083 43.7502H12.2917C11.25 43.7502 10.2083 42.9168 10 41.8751L6.25 27.0835H43.75L40 41.8751C39.7917 42.9168 38.75 43.7502 37.7083 43.7502ZM27.0833 37.5002V31.2502C27.0833 30.0002 26.25 29.1668 25 29.1668C23.75 29.1668 22.9167 30.0002 22.9167 31.2502V37.5002C22.9167 38.7502 23.75 39.5835 25 39.5835C26.25 39.5835 27.0833 38.7502 27.0833 37.5002ZM35.4167 37.5002V31.2502C35.4167 30.0002 34.5833 29.1668 33.3333 29.1668C32.0833 29.1668 31.25 30.0002 31.25 31.2502V37.5002C31.25 38.7502 32.0833 39.5835 33.3333 39.5835C34.5833 39.5835 35.4167 38.7502 35.4167 37.5002ZM18.75 37.5002V31.2502C18.75 30.0002 17.9167 29.1668 16.6667 29.1668C15.4167 29.1668 14.5833 30.0002 14.5833 31.2502V37.5002C14.5833 38.7502 15.4167 39.5835 16.6667 39.5835C17.9167 39.5835 18.75 38.7502 18.75 37.5002Z" fill="#A1A5B7"/>
</svg>
