<svg width="50" height="50" viewBox="0 0 50 50" fill="none" xmlns="http://www.w3.org/2000/svg">
<path d="M43.75 18.7498V22.9165C43.75 24.1665 42.9167 24.9998 41.6667 24.9998H29.1667V16.6665H41.6667C42.9167 16.6665 43.75 17.4998 43.75 18.7498ZM20.8333 16.6665H8.33333C7.08333 16.6665 6.25 17.4998 6.25 18.7498V22.9165C6.25 24.1665 7.08333 24.9998 8.33333 24.9998H20.8333V16.6665Z" fill="#A1A5B7"/>
<path d="M31.25 4.1665C27.7083 4.1665 25 6.87484 25 10.4165V16.6665H31.25C34.7917 16.6665 37.5 13.9582 37.5 10.4165C37.5 6.87484 34.7917 4.1665 31.25 4.1665Z" fill="#A1A5B7"/>
<path opacity="0.3" d="M18.7499 4.1665C22.2916 4.1665 24.9999 6.87484 24.9999 10.4165V16.6665H18.7499C15.2083 16.6665 12.4999 13.9582 12.4999 10.4165C12.4999 6.87484 15.2083 4.1665 18.7499 4.1665ZM8.33325 24.9998V43.7499C8.33325 44.9999 9.16659 45.8332 10.4166 45.8332H20.8333V24.9998H8.33325ZM41.6666 24.9998V43.7499C41.6666 44.9999 40.8332 45.8332 39.5832 45.8332H29.1666V24.9998H41.6666Z" fill="#A1A5B7"/>
</svg>
