<svg width="50" height="50" viewBox="0 0 50 50" fill="none" xmlns="http://www.w3.org/2000/svg">
<path opacity="0.3" d="M43.7501 22.3315H6.25008C5.00008 22.3315 4.16675 23.1649 4.16675 24.4149C4.16675 25.6649 5.00008 26.4982 6.25008 26.4982H12.5001V30.6649C12.5001 37.5399 18.1251 43.1649 25.0001 43.1649C31.8751 43.1649 37.5001 37.5399 37.5001 30.6649V26.4982H43.7501C45.0001 26.4982 45.8334 25.6649 45.8334 24.4149C45.8334 23.1649 45.0001 22.3315 43.7501 22.3315Z" fill="#A1A5B7"/>
<path d="M24.1668 45.6648C23.7501 45.6648 23.3334 45.4564 22.9167 45.2481C22.0834 44.6231 21.8751 43.1647 22.5001 42.3314C24.3751 39.8314 25.6251 37.1231 26.4584 33.9981C26.6667 32.9564 27.9167 32.1232 28.9584 32.5398C30.0001 32.7482 30.8334 33.9981 30.4168 35.0397C29.5834 38.5814 27.9167 41.9148 25.8334 44.8314C25.4167 45.2481 24.7918 45.6648 24.1668 45.6648ZM18.1251 41.0814C21.2501 37.7481 22.9167 33.1648 22.9167 28.5814V18.1648C22.9167 16.9148 23.7501 16.0814 25.0001 16.0814C26.2501 16.0814 27.0834 16.9148 27.0834 18.1648V27.1231C27.0834 28.3731 27.9167 29.2064 29.1667 29.2064C30.4167 29.2064 31.2501 28.3731 31.2501 27.1231V18.1648C31.2501 14.6231 28.5417 11.9148 25.0001 11.9148C21.4584 11.9148 18.7501 14.6231 18.7501 18.1648V28.5814C18.7501 32.1231 17.5001 35.6647 15.0001 38.1647C14.1667 38.9981 14.3751 40.2481 15.2084 41.0814C15.6251 41.4981 16.0417 41.7064 16.6667 41.7064C17.2917 41.7064 17.7084 41.4981 18.1251 41.0814ZM12.5001 34.8314C13.5417 34.8314 14.5834 33.7898 14.5834 32.7481V18.1648C14.5834 16.9148 14.7918 15.6648 15.2084 14.4148C15.6251 13.3731 15.0001 12.1232 13.9584 11.7065C12.9167 11.2898 11.6667 11.9148 11.2501 12.9564C10.6251 14.6231 10.4167 16.2898 10.4167 18.1648V32.7481V32.9564C10.4167 33.9981 11.4584 34.8314 12.5001 34.8314ZM18.7501 9.83144C19.7917 8.99811 21.0417 8.58147 22.2917 8.1648C23.3334 7.95647 23.9584 6.70645 23.7501 5.66478C23.5417 4.62311 22.2917 3.99809 21.2501 4.20642C19.5834 4.62309 17.9167 5.4565 16.4584 6.49816C15.6251 7.12316 15.4167 8.58142 16.0417 9.41475C16.4584 10.0398 17.0834 10.2481 17.7084 10.2481C17.9167 10.2481 18.3334 10.0398 18.7501 9.83144ZM37.9167 39.4148C38.9584 35.8731 39.5834 32.3314 39.5834 28.5814V18.1648C39.5834 11.9148 35.6251 6.49816 29.7918 4.41483C28.7501 3.99816 27.5001 4.62311 27.0834 5.66478C26.6667 6.70645 27.2918 7.95642 28.3334 8.37309C32.5001 9.83142 35.4167 13.7898 35.4167 18.1648V28.5814C35.4167 31.9148 35.0001 35.0397 33.9584 38.1647C33.5418 39.2064 34.1667 40.4565 35.2084 40.8732C35.4167 40.8732 35.6251 40.8732 35.8334 40.8732C36.8751 40.8732 37.5001 40.2481 37.9167 39.4148Z" fill="#A1A5B7"/>
</svg>
