<svg width="50" height="50" viewBox="0 0 50 50" fill="none" xmlns="http://www.w3.org/2000/svg">
<path d="M35.2605 8.12663V16.6683L25.0522 22.5016V10.6266L32.3438 6.45995C33.5938 5.83495 35.2605 6.66829 35.2605 8.12663ZM5.2605 28.1266L12.5522 32.2933L22.7605 26.4599L12.5522 20.6266L5.2605 24.7933C3.80216 25.6266 3.80216 27.5016 5.2605 28.1266ZM37.5522 41.0433V32.5016L27.3438 26.6683V38.5433L34.6355 42.7099C35.8855 43.3349 37.5522 42.5016 37.5522 41.0433Z" fill="#A1A5B7"/>
<path opacity="0.3" d="M17.7608 6.45995L25.0525 10.6266V22.5016L14.8442 16.6683V8.12663C14.8442 6.66829 16.5108 5.83495 17.7608 6.45995ZM15.4691 42.7099L22.7608 38.5433V26.6683L12.5525 32.5016V41.0433C12.5525 42.5016 14.2191 43.3349 15.4691 42.7099ZM44.8442 24.7933L37.5525 20.6266L27.3442 26.4599L37.5525 32.2933L44.8442 28.1266C46.3025 27.5016 46.3025 25.6266 44.8442 24.7933Z" fill="#A1A5B7"/>
</svg>
