<svg width="30" height="30" viewBox="0 0 30 30" fill="none" xmlns="http://www.w3.org/2000/svg">
<path d="M10.875 5.24997L5 7.87509V23.6249L10.875 21.0001V23.75L3.875 26.875C3.25 27.125 2.5 26.7501 2.5 26.0001V7.50003C2.5 6.75003 2.875 6.12497 3.625 5.87497L10.875 2.625V5.24997Z" fill="#A1A5B7"/>
<path d="M19.125 24.75L25 22.1249V6.37496L19.125 8.99993V6.24999L26.125 3.12499C26.75 2.87499 27.5 3.24993 27.5 3.99993V22.5C27.5 23.25 27.125 23.875 26.375 24.125L19.125 27.3749V24.75Z" fill="#A1A5B7"/>
<path opacity="0.3" d="M19.125 8.99997L25 6.375V22.125L19.125 24.7501V8.99997Z" fill="#A1A5B7"/>
<path opacity="0.3" d="M10.875 5.24994V2.5L19.25 6.25V8.99994L10.875 5.24994ZM10.875 21.0001V23.75L19.25 27.5V24.7501L10.875 21.0001Z" fill="#A1A5B7"/>
<path opacity="0.3" d="M10.875 21.0001L5 23.6249V7.87512L10.875 5.25V21.0001Z" fill="#A1A5B7"/>
</svg>
