<svg width="30" height="30" viewBox="0 0 30 30" fill="none" xmlns="http://www.w3.org/2000/svg">
<path opacity="0.3" d="M26.25 27.5H3.75C3 27.5 2.5 27 2.5 26.25V6.25C2.5 5.5 3 5 3.75 5H26.25C27 5 27.5 5.5 27.5 6.25V26.25C27.5 27 27 27.5 26.25 27.5Z" fill="#A1A5B7"/>
<path d="M7.5 7.5C6.75 7.5 6.25 7 6.25 6.25V3.75C6.25 3 6.75 2.5 7.5 2.5C8.25 2.5 8.75 3 8.75 3.75V6.25C8.75 7 8.25 7.5 7.5 7.5ZM13.75 6.25V3.75C13.75 3 13.25 2.5 12.5 2.5C11.75 2.5 11.25 3 11.25 3.75V6.25C11.25 7 11.75 7.5 12.5 7.5C13.25 7.5 13.75 7 13.75 6.25ZM18.75 6.25V3.75C18.75 3 18.25 2.5 17.5 2.5C16.75 2.5 16.25 3 16.25 3.75V6.25C16.25 7 16.75 7.5 17.5 7.5C18.25 7.5 18.75 7 18.75 6.25ZM23.75 6.25V3.75C23.75 3 23.25 2.5 22.5 2.5C21.75 2.5 21.25 3 21.25 3.75V6.25C21.25 7 21.75 7.5 22.5 7.5C23.25 7.5 23.75 7 23.75 6.25Z" fill="#A1A5B7"/>
<path d="M11 16.375C11.5 16.375 11.875 16.25 12.125 16C12.375 15.75 12.625 15.375 12.625 14.875C12.625 14.5 12.5 14.125 12.25 13.875C12 13.625 11.625 13.5 11.25 13.5C11 13.5 10.75 13.5 10.5 13.625C10.25 13.75 10.125 13.875 9.99999 14C9.87499 14.125 9.74999 14.25 9.62499 14.5C9.49999 14.75 9.37499 14.875 9.37499 15.125C9.37499 15.25 9.25 15.25 9.125 15.375C9 15.5 8.87498 15.5 8.62498 15.5C8.37498 15.5 8.24999 15.375 8.12499 15.25C7.99999 15.125 7.875 14.875 7.875 14.625C7.875 14.375 7.99999 14.125 8.12499 13.875C8.24999 13.625 8.49999 13.375 8.74999 13.125C8.99999 12.875 9.37498 12.625 9.87498 12.5C10.375 12.375 10.75 12.25 11.375 12.25C11.875 12.25 12.25 12.375 12.625 12.5C13 12.625 13.375 12.875 13.625 13C13.875 13.125 14.125 13.5 14.25 13.875C14.375 14.25 14.5 14.5 14.5 14.875C14.5 15.375 14.375 15.75 14.125 16.125C13.875 16.5 13.625 16.875 13.25 17.125C13.625 17.375 14 17.625 14.25 17.875C14.5 18.125 14.75 18.375 14.875 18.75C15 19.125 15.125 19.375 15.125 19.75C15.125 20.25 15 20.625 14.875 21C14.75 21.375 14.375 21.75 14.125 22.125C13.875 22.5 13.375 22.75 12.875 22.875C12.375 23 11.875 23.125 11.25 23.125C10.625 23.125 10.125 23 9.62499 22.75C9.12499 22.5 8.75 22.25 8.5 22C8.25 21.75 8 21.375 7.875 21C7.75 20.625 7.625 20.375 7.625 20.125C7.625 19.875 7.75 19.625 7.875 19.5C8 19.375 8.25 19.25 8.5 19.25C8.625 19.25 8.75 19.25 8.875 19.375C9 19.5 9.125 19.5 9.125 19.625C9.375 20.25 9.62499 20.75 9.99999 21.125C10.375 21.5 10.75 21.625 11.25 21.625C11.5 21.625 11.875 21.5 12.125 21.375C12.375 21.25 12.625 21 12.875 20.75C13.125 20.5 13.125 20.125 13.125 19.75C13.125 19.125 13 18.75 12.625 18.375C12.25 18 11.875 17.875 11.375 17.875C11.25 17.875 11.125 17.875 10.875 17.875C10.625 17.875 10.5 17.875 10.5 17.875C10.25 17.875 9.99998 17.75 9.87498 17.625C9.74998 17.5 9.62499 17.25 9.62499 17.125C9.62499 16.875 9.74998 16.75 9.87498 16.5C9.99998 16.25 10.25 16.25 10.625 16.25H11V16.375ZM19.125 21.875V15.25C17.875 16.25 17 16.625 16.625 16.625C16.375 16.625 16.25 16.5 16.125 16.375C16 16.25 15.875 16 15.875 15.75C15.875 15.5 16 15.375 16.125 15.25C16.25 15.125 16.5 15 17 14.75C17.625 14.5 18.125 14.125 18.375 13.875C18.625 13.625 19 13.25 19.375 12.875C19.75 12.5 19.875 12.25 19.875 12.125C19.875 12 20.125 12 20.375 12C20.625 12 20.875 12.125 21 12.25C21.125 12.375 21.25 12.75 21.25 13.125V21.5C21.25 22.5 20.875 23 20.25 23C20 23 19.75 22.875 19.5 22.75C19.25 22.625 19.125 22.25 19.125 21.875Z" fill="#A1A5B7"/>
</svg>
