<svg width="16" height="16" viewBox="0 0 16 16" fill="none" xmlns="http://www.w3.org/2000/svg">
<path d="M14.1381 2.98661C14.7155 3.56402 14.725 4.49722 14.1594 5.08622L8.74248 10.7273C8.46719 11.014 8.08938 11.1797 7.69201 11.188L5.41668 11.2358L5.46474 8.94521C5.47289 8.55688 5.63135 8.18685 5.90679 7.91298L11.4438 2.40759C12.0301 1.82467 12.9775 1.82602 13.5621 2.41063L14.1381 2.98661Z" fill="#7E8299"/>
<path opacity="0.3" d="M8.59992 1.3335C8.96811 1.3335 9.26659 1.63197 9.26659 2.00016C9.26659 2.36835 8.96811 2.66683 8.59992 2.66683H3.99992C3.26354 2.66683 2.66659 3.26378 2.66659 4.00016V12.0002C2.66659 12.7365 3.26354 13.3335 3.99992 13.3335H11.9999C12.7363 13.3335 13.3333 12.7365 13.3333 12.0002V8.66683C13.3333 8.29864 13.6317 8.00016 13.9999 8.00016C14.3681 8.00016 14.6666 8.29864 14.6666 8.66683V12.0002C14.6666 13.4729 13.4727 14.6668 11.9999 14.6668H3.99992C2.52716 14.6668 1.33325 13.4729 1.33325 12.0002V4.00016C1.33325 2.5274 2.52716 1.3335 3.99992 1.3335H8.59992Z" fill="#7E8299"/>
</svg>
