<svg width="50" height="50" viewBox="0 0 50 50" fill="none" xmlns="http://www.w3.org/2000/svg">
<path opacity="0.3" d="M8.44698 31.6627C17.3866 16.1835 28.2887 6.79812 43.6012 4.19604C43.9025 4.14228 44.2123 4.16212 44.5044 4.25387C44.7964 4.34562 45.0619 4.50656 45.2783 4.723C45.4948 4.93944 45.6557 5.20497 45.7475 5.49699C45.8392 5.78901 45.8591 6.09887 45.8053 6.4002C43.2032 21.7127 33.8178 32.6148 18.3386 41.5544L8.44698 31.6627ZM7.9574 36.119L5.48656 42.6002C5.38455 42.8676 5.3621 43.1589 5.4219 43.4388C5.48171 43.7187 5.62123 43.9753 5.82362 44.1777C6.02602 44.3801 6.28265 44.5196 6.56256 44.5794C6.84247 44.6393 7.13371 44.6168 7.40114 44.5148L13.8866 42.0419L7.9574 36.119ZM34.3761 12.496C33.7581 12.496 33.1539 12.6793 32.64 13.0227C32.1261 13.3661 31.7256 13.8541 31.489 14.4252C31.2525 14.9962 31.1906 15.6245 31.3112 16.2307C31.4318 16.8369 31.7294 17.3937 32.1664 17.8307C32.6035 18.2678 33.1603 18.5654 33.7665 18.686C34.3727 18.8066 35.001 18.7447 35.572 18.5082C36.1431 18.2716 36.6311 17.8711 36.9745 17.3572C37.3179 16.8433 37.5011 16.2391 37.5011 15.621C37.5011 14.7922 37.1719 13.9974 36.5859 13.4113C35.9998 12.8253 35.205 12.496 34.3761 12.496Z" fill="#A1A5B7"/>
<path d="M8.44639 31.6628L4.68181 27.8982C4.48977 27.7062 4.34481 27.4723 4.25832 27.2148C4.17182 26.9574 4.14613 26.6834 4.18326 26.4144C4.2204 26.1454 4.31935 25.8886 4.47235 25.6642C4.62536 25.4398 4.82826 25.2539 5.06514 25.1211L19.0693 17.269C14.9449 21.6077 11.3765 26.4428 8.44639 31.6628ZM18.3339 41.5503L22.0985 45.3149C22.2905 45.5069 22.5244 45.6519 22.7818 45.7384C23.0393 45.8249 23.3133 45.8506 23.5823 45.8134C23.8513 45.7763 24.1081 45.6773 24.3325 45.5243C24.5569 45.3713 24.7427 45.1684 24.8756 44.9315L32.7276 30.9253C28.3896 35.0509 23.5544 38.6201 18.3339 41.5503ZM14.6672 37.8815L26.2151 26.3336C26.5377 25.9914 26.7143 25.5369 26.7073 25.0666C26.7004 24.5963 26.5104 24.1472 26.1779 23.8146C25.8453 23.4821 25.3962 23.2922 24.9259 23.2852C24.4557 23.2782 24.0012 23.4548 23.6589 23.7774L12.111 35.3253L14.6672 37.8815Z" fill="#A1A5B7"/>
</svg>
