<svg width="50" height="50" viewBox="0 0 50 50" fill="none" xmlns="http://www.w3.org/2000/svg">
<path opacity="0.3" d="M43.5417 26.8748C42.2917 26.8748 41.4584 26.0415 41.4584 24.7915C41.4584 23.5415 42.2917 22.7082 43.5417 22.7082H45.4167C44.3751 12.9165 36.6667 4.99984 26.8751 4.1665V6.04151C26.8751 7.29151 26.0417 8.12484 24.7917 8.12484C23.5417 8.12484 22.7084 7.29151 22.7084 6.04151V4.1665C12.9167 5.20817 5.00008 12.9165 4.16675 22.7082H6.04174C7.29174 22.7082 8.12507 23.5415 8.12507 24.7915C8.12507 26.0415 7.29174 26.8748 6.04174 26.8748H4.16675C5.20841 36.6665 12.9167 44.5832 22.7084 45.4165V43.5415C22.7084 42.2915 23.5417 41.4582 24.7917 41.4582C26.0417 41.4582 26.8751 42.2915 26.8751 43.5415V45.4165C36.6667 44.3748 44.5834 36.6665 45.4167 26.8748H43.5417Z" fill="#A1A5B7"/>
<path d="M35.2087 22.708H28.3337C27.917 22.083 27.5003 21.6663 26.8753 21.2497V12.2913C26.8753 11.0413 26.042 10.208 24.792 10.208C23.542 10.208 22.7087 11.0413 22.7087 12.2913V21.2497C22.0837 21.6663 21.667 22.083 21.2503 22.708H20.6253C19.3753 22.708 18.542 23.5413 18.542 24.7913C18.542 26.0413 19.3753 26.8747 20.6253 26.8747H21.2503C21.667 27.4997 22.0837 27.9163 22.7087 28.333V28.958C22.7087 30.208 23.542 31.0413 24.792 31.0413C26.042 31.0413 26.8753 30.208 26.8753 28.958V28.333C27.5003 27.9163 27.917 27.4997 28.3337 26.8747H35.2087C36.4587 26.8747 37.292 26.0413 37.292 24.7913C37.292 23.5413 36.4587 22.708 35.2087 22.708Z" fill="#A1A5B7"/>
</svg>
