<svg width="50" height="50" viewBox="0 0 50 50" fill="none" xmlns="http://www.w3.org/2000/svg">
<path opacity="0.3" d="M22.9167 13.5415C22.9167 18.7498 18.7501 22.9165 13.5417 22.9165C8.33342 22.9165 4.16675 18.7498 4.16675 13.5415C4.16675 8.33317 8.33342 4.1665 13.5417 4.1665C18.7501 4.1665 22.9167 8.33317 22.9167 13.5415ZM36.4584 4.1665C31.2501 4.1665 27.0834 8.33317 27.0834 13.5415C27.0834 18.7498 31.2501 22.9165 36.4584 22.9165C41.6668 22.9165 45.8334 18.7498 45.8334 13.5415C45.8334 8.33317 41.6668 4.1665 36.4584 4.1665ZM13.5417 27.0832C8.33342 27.0832 4.16675 31.2498 4.16675 36.4582C4.16675 41.6665 8.33342 45.8332 13.5417 45.8332C18.7501 45.8332 22.9167 41.6665 22.9167 36.4582C22.9167 31.2498 18.7501 27.0832 13.5417 27.0832ZM36.4584 27.0832C31.2501 27.0832 27.0834 31.2498 27.0834 36.4582C27.0834 41.6665 31.2501 45.8332 36.4584 45.8332C41.6668 45.8332 45.8334 41.6665 45.8334 36.4582C45.8334 31.2498 41.6668 27.0832 36.4584 27.0832Z" fill="#A1A5B7"/>
<path d="M36.4588 33.333C36.4588 33.333 36.2504 33.333 36.4588 33.333L34.7921 31.8746C33.5421 30.6246 32.7088 28.9579 32.5004 27.2912C32.2921 25.8329 32.2921 24.1663 32.5004 22.4996C32.7088 20.8329 33.5421 19.1662 34.7921 17.9162L36.2504 16.458H36.4588C38.1254 16.458 39.5838 14.9997 39.5838 13.333C39.5838 11.6663 38.1254 10.208 36.4588 10.208C34.7921 10.208 33.3338 11.6663 33.3338 13.333V13.5413L31.8754 14.9996C30.6254 16.2496 28.9588 17.0829 27.2921 17.2913C25.8338 17.4996 24.1671 17.4996 22.5004 17.2913C20.8337 17.0829 19.1671 16.2496 17.9171 14.9996L16.4587 13.5413V13.333C16.4587 11.6663 15.0004 10.208 13.3337 10.208C11.6671 10.208 10.2087 11.6663 10.2087 13.333C10.2087 14.9997 11.6671 16.458 13.3337 16.458H13.5421L15.0004 17.9162C16.2504 19.1662 17.0837 20.8329 17.2921 22.4996C17.5004 23.9579 17.5004 25.6246 17.2921 27.2912C17.0837 28.9579 16.2504 30.6246 15.0004 31.8746L13.5421 33.333H13.3337C11.6671 33.333 10.2087 34.7913 10.2087 36.458C10.2087 38.1246 11.6671 39.583 13.3337 39.583C15.0004 39.583 16.4587 38.1246 16.4587 36.458V36.2497L17.9171 34.7913C19.1671 33.5413 20.8337 32.7079 22.5004 32.4996C23.9587 32.2912 25.6254 32.2912 27.2921 32.4996C28.9588 32.7079 30.6254 33.5413 31.8754 34.7913L33.3338 36.2497V36.458C33.3338 38.1246 34.7921 39.583 36.4588 39.583C38.1254 39.583 39.5838 38.1246 39.5838 36.458C39.5838 34.7913 38.1254 33.333 36.4588 33.333Z" fill="#A1A5B7"/>
</svg>
