<svg width="28" height="28" viewBox="0 0 28 28" fill="none" xmlns="http://www.w3.org/2000/svg">
<g clip-path="url(#clip0_639_2218)">
<path d="M15.1321 21.4678L9.65234 26.9311C9.48833 27.0295 9.27505 27.2757 8.83203 27.1444C8.6024 27.0623 8.32344 26.7998 8.27427 26.5045V26.4881L6.69922 17.0709L7.97896 16.103C8.14466 16.2002 11.3069 18.0545 11.1125 17.9405L15.132 20.303C15.4438 20.6311 15.4438 21.1397 15.1321 21.4678Z" fill="#009AE4"/>
<path d="M27.984 1.80268L23.007 26.521C22.9578 26.7835 22.7609 27.0132 22.4984 27.1116C22.4 27.1608 22.3016 27.1772 22.2031 27.1772C22.0391 27.1772 21.875 27.128 21.7273 27.0296C21.5623 26.9117 9.47401 18.2772 10.243 18.8265C2.92359 15.2007 6.74149 17.1064 0.459375 13.9702C0.164062 13.8226 0 13.5272 0 13.2155C0.0164063 12.8874 0.196875 12.6085 0.492188 12.4772L26.852 0.883928C27.1309 0.769085 27.459 0.801897 27.6887 0.998772C27.7215 1.03158 27.7708 1.0808 27.8036 1.11362C27.9676 1.31049 28.0333 1.55658 27.984 1.80268Z" fill="#25D9F8"/>
<path d="M27.8036 1.11377L11.1125 17.9407L10.243 18.8266L8.83203 27.1445C8.6024 27.0625 8.32344 26.7999 8.27427 26.5047V26.4883L6.69922 17.0711L7.97896 16.1032L27.8036 1.11377Z" fill="#00C0F1"/>
</g>
<defs>
<clipPath id="clip0_639_2218">
<rect width="28" height="28" fill="white"/>
</clipPath>
</defs>
</svg>
