<svg width="688" height="342" viewBox="0 0 688 342" fill="none" xmlns="http://www.w3.org/2000/svg">
<line x1="44.2012" y1="10.5" x2="687.138" y2="10.5" stroke="#EAEAEA" stroke-dasharray="3 4"/>
<line x1="44.2012" y1="70.5" x2="687.138" y2="70.5" stroke="#EAEAEA" stroke-dasharray="3 4"/>
<line x1="44.2012" y1="130.5" x2="687.138" y2="130.5" stroke="#EAEAEA" stroke-dasharray="3 4"/>
<line x1="44.2012" y1="190.5" x2="687.138" y2="190.5" stroke="#EAEAEA" stroke-dasharray="3 4"/>
<line x1="44.2012" y1="250.5" x2="687.138" y2="250.5" stroke="#EAEAEA" stroke-dasharray="3 4"/>
<line x1="44.2012" y1="310.5" x2="687.138" y2="310.5" stroke="#EAEAEA" stroke-dasharray="3 4"/>
<path d="M96.6671 336H98.0471V327.252H95.5511V328.5H96.6671V336ZM108.852 336H110.292L107.304 327.648H105.72L102.732 336H104.16L104.76 334.296H108.252L108.852 336ZM107.868 333.18H105.144L106.512 329.304L107.868 333.18ZM117.579 329.388H116.211V333.072C116.211 334.284 115.551 334.908 114.543 334.908C113.547 334.908 112.887 334.284 112.887 333.072V329.388H111.531V333.276C111.531 335.124 112.707 336.096 114.255 336.096C115.035 336.096 115.779 335.772 116.211 335.208V336H117.579V329.388ZM118.928 332.664C118.928 334.704 120.308 336.108 122.048 336.108C123.128 336.108 123.92 335.568 124.34 335.004V336.108C124.34 337.428 123.548 338.076 122.492 338.076C121.544 338.076 120.812 337.608 120.608 336.924H119.252C119.42 338.388 120.728 339.264 122.492 339.264C124.556 339.264 125.72 337.908 125.72 336.108V329.388H124.34V330.348C123.932 329.784 123.128 329.28 122.048 329.28C120.308 329.28 118.928 330.624 118.928 332.664ZM124.34 332.688C124.34 334.116 123.368 334.92 122.336 334.92C121.316 334.92 120.332 334.092 120.332 332.664C120.332 331.236 121.316 330.468 122.336 330.468C123.368 330.468 124.34 331.272 124.34 332.688Z" fill="#B5B5C3"/>
<path d="M200.51 331.428C199.634 331.752 199.046 332.532 199.046 333.588C199.046 335.184 200.342 336.216 202.142 336.216C203.954 336.216 205.25 335.184 205.25 333.588C205.25 332.544 204.662 331.764 203.774 331.428C204.482 331.08 205.022 330.396 205.022 329.46C205.022 328.2 204.074 327.096 202.142 327.096C200.21 327.096 199.262 328.188 199.262 329.46C199.262 330.432 199.766 331.056 200.51 331.428ZM202.142 330.996C201.23 330.996 200.582 330.432 200.582 329.64C200.582 328.716 201.206 328.236 202.142 328.236C203.102 328.236 203.714 328.728 203.714 329.628C203.714 330.42 203.054 330.996 202.142 330.996ZM202.142 332.028C203.174 332.028 203.906 332.556 203.906 333.54C203.906 334.416 203.246 335.076 202.142 335.076C201.026 335.076 200.354 334.428 200.354 333.54C200.354 332.52 201.134 332.028 202.142 332.028ZM215.611 336H217.051L214.063 327.648H212.479L209.491 336H210.919L211.519 334.296H215.011L215.611 336ZM214.627 333.18H211.903L213.271 329.304L214.627 333.18ZM224.338 329.388H222.97V333.072C222.97 334.284 222.31 334.908 221.302 334.908C220.306 334.908 219.646 334.284 219.646 333.072V329.388H218.29V333.276C218.29 335.124 219.466 336.096 221.014 336.096C221.794 336.096 222.538 335.772 222.97 335.208V336H224.338V329.388ZM225.687 332.664C225.687 334.704 227.067 336.108 228.807 336.108C229.887 336.108 230.679 335.568 231.099 335.004V336.108C231.099 337.428 230.307 338.076 229.251 338.076C228.303 338.076 227.571 337.608 227.367 336.924H226.011C226.179 338.388 227.487 339.264 229.251 339.264C231.315 339.264 232.479 337.908 232.479 336.108V329.388H231.099V330.348C230.691 329.784 229.887 329.28 228.807 329.28C227.067 329.28 225.687 330.624 225.687 332.664ZM231.099 332.688C231.099 334.116 230.127 334.92 229.095 334.92C228.075 334.92 227.091 334.092 227.091 332.664C227.091 331.236 228.075 330.468 229.095 330.468C230.127 330.468 231.099 331.272 231.099 332.688Z" fill="#B5B5C3"/>
<path d="M300.8 336H302.18V327.252H299.684V328.5H300.8V336ZM304.419 327.228V332.28H305.715C305.943 331.632 306.483 331.188 307.287 331.188C308.427 331.188 308.991 331.836 308.991 332.976C308.991 334.056 308.463 334.86 307.287 334.86C306.363 334.86 305.739 334.38 305.559 333.636H304.227C304.431 335.004 305.475 336 307.275 336C309.303 336 310.299 334.68 310.299 332.94C310.299 331.62 309.639 330.024 307.491 330.024C306.711 330.024 306.003 330.384 305.679 330.816V328.428H309.699V327.228H304.419ZM312.659 336H314.039V327.252H311.543V328.5H312.659V336ZM324.844 336H326.284L323.296 327.648H321.712L318.724 336H320.152L320.752 334.296H324.244L324.844 336ZM323.86 333.18H321.136L322.504 329.304L323.86 333.18ZM333.571 329.388H332.203V333.072C332.203 334.284 331.543 334.908 330.535 334.908C329.539 334.908 328.879 334.284 328.879 333.072V329.388H327.523V333.276C327.523 335.124 328.699 336.096 330.247 336.096C331.027 336.096 331.771 335.772 332.203 335.208V336H333.571V329.388ZM334.92 332.664C334.92 334.704 336.3 336.108 338.04 336.108C339.12 336.108 339.912 335.568 340.332 335.004V336.108C340.332 337.428 339.54 338.076 338.484 338.076C337.536 338.076 336.804 337.608 336.6 336.924H335.244C335.412 338.388 336.72 339.264 338.484 339.264C340.548 339.264 341.712 337.908 341.712 336.108V329.388H340.332V330.348C339.924 329.784 339.12 329.28 338.04 329.28C336.3 329.28 334.92 330.624 334.92 332.664ZM340.332 332.688C340.332 334.116 339.36 334.92 338.328 334.92C337.308 334.92 336.324 334.092 336.324 332.664C336.324 331.236 337.308 330.468 338.328 330.468C339.36 330.468 340.332 331.272 340.332 332.688Z" fill="#B5B5C3"/>
<path d="M405.888 335.88H411.72V334.74H407.916C409.32 333.456 411.48 331.836 411.48 329.712C411.48 328.14 410.472 327.072 408.696 327.072C407.148 327.072 405.924 327.996 405.876 329.892H407.196C407.232 328.908 407.748 328.236 408.708 328.236C409.728 328.236 410.124 328.86 410.124 329.772C410.124 331.488 407.952 333.072 405.888 334.884V335.88ZM412.814 335.88H418.646V334.74H414.842C416.246 333.456 418.406 331.836 418.406 329.712C418.406 328.14 417.398 327.072 415.622 327.072C414.074 327.072 412.85 327.996 412.802 329.892H414.122C414.158 328.908 414.674 328.236 415.634 328.236C416.654 328.236 417.05 328.86 417.05 329.772C417.05 331.488 414.878 333.072 412.814 334.884V335.88ZM428.773 336H430.213L427.225 327.648H425.641L422.653 336H424.081L424.681 334.296H428.173L428.773 336ZM427.789 333.18H425.065L426.433 329.304L427.789 333.18ZM437.5 329.388H436.132V333.072C436.132 334.284 435.472 334.908 434.464 334.908C433.468 334.908 432.808 334.284 432.808 333.072V329.388H431.452V333.276C431.452 335.124 432.628 336.096 434.176 336.096C434.956 336.096 435.7 335.772 436.132 335.208V336H437.5V329.388ZM438.849 332.664C438.849 334.704 440.229 336.108 441.969 336.108C443.049 336.108 443.841 335.568 444.261 335.004V336.108C444.261 337.428 443.469 338.076 442.413 338.076C441.465 338.076 440.733 337.608 440.529 336.924H439.173C439.341 338.388 440.649 339.264 442.413 339.264C444.477 339.264 445.641 337.908 445.641 336.108V329.388H444.261V330.348C443.853 329.784 443.049 329.28 441.969 329.28C440.229 329.28 438.849 330.624 438.849 332.664ZM444.261 332.688C444.261 334.116 443.289 334.92 442.257 334.92C441.237 334.92 440.253 334.092 440.253 332.664C440.253 331.236 441.237 330.468 442.257 330.468C443.289 330.468 444.261 331.272 444.261 332.688Z" fill="#B5B5C3"/>
<path d="M510.574 335.88H516.406V334.74H512.602C514.006 333.456 516.166 331.836 516.166 329.712C516.166 328.14 515.158 327.072 513.382 327.072C511.834 327.072 510.61 327.996 510.562 329.892H511.882C511.918 328.908 512.434 328.236 513.394 328.236C514.414 328.236 514.81 328.86 514.81 329.772C514.81 331.488 512.638 333.072 510.574 334.884V335.88ZM518.051 333.624C518.159 334.872 518.999 335.988 520.811 335.988C523.103 335.988 523.727 334.416 523.727 331.464C523.727 328.596 522.971 327.048 520.715 327.048C518.879 327.048 517.811 328.2 517.811 329.94C517.811 331.788 519.059 332.736 520.595 332.736C521.387 332.736 522.143 332.436 522.539 331.884C522.539 334.116 521.987 334.848 520.895 334.848C519.983 334.848 519.467 334.404 519.311 333.624H518.051ZM520.835 331.584C519.623 331.584 519.119 330.804 519.119 329.904C519.119 328.896 519.731 328.188 520.751 328.188C521.747 328.188 522.383 328.824 522.383 329.94C522.383 330.924 521.807 331.584 520.835 331.584ZM534.15 336H535.59L532.602 327.648H531.018L528.03 336H529.458L530.058 334.296H533.55L534.15 336ZM533.166 333.18H530.442L531.81 329.304L533.166 333.18ZM542.877 329.388H541.509V333.072C541.509 334.284 540.849 334.908 539.841 334.908C538.845 334.908 538.185 334.284 538.185 333.072V329.388H536.829V333.276C536.829 335.124 538.005 336.096 539.553 336.096C540.333 336.096 541.077 335.772 541.509 335.208V336H542.877V329.388ZM544.226 332.664C544.226 334.704 545.606 336.108 547.346 336.108C548.426 336.108 549.218 335.568 549.638 335.004V336.108C549.638 337.428 548.846 338.076 547.79 338.076C546.842 338.076 546.11 337.608 545.906 336.924H544.55C544.718 338.388 546.026 339.264 547.79 339.264C549.854 339.264 551.018 337.908 551.018 336.108V329.388H549.638V330.348C549.23 329.784 548.426 329.28 547.346 329.28C545.606 329.28 544.226 330.624 544.226 332.664ZM549.638 332.688C549.638 334.116 548.666 334.92 547.634 334.92C546.614 334.92 545.63 334.092 545.63 332.664C545.63 331.236 546.614 330.468 547.634 330.468C548.666 330.468 549.638 331.272 549.638 332.688Z" fill="#B5B5C3"/>
<path d="M618.921 327.228V332.28H620.217C620.445 331.632 620.985 331.188 621.789 331.188C622.929 331.188 623.493 331.836 623.493 332.976C623.493 334.056 622.965 334.86 621.789 334.86C620.865 334.86 620.241 334.38 620.061 333.636H618.729C618.933 335.004 619.977 336 621.777 336C623.805 336 624.801 334.68 624.801 332.94C624.801 331.62 624.141 330.024 621.993 330.024C621.213 330.024 620.505 330.384 620.181 330.816V328.428H624.201V327.228H618.921ZM635.15 333.636C635.15 330.588 630.734 331.764 630.734 329.88C630.734 329.076 631.346 328.692 632.138 328.716C633.002 328.74 633.494 329.256 633.542 329.82H635.054C634.934 328.392 633.806 327.552 632.21 327.552C630.506 327.552 629.342 328.464 629.342 329.928C629.342 333 633.77 331.692 633.77 333.708C633.77 334.416 633.23 334.932 632.27 334.932C631.322 334.932 630.842 334.38 630.782 333.696H629.318C629.318 335.172 630.602 336.084 632.27 336.084C634.13 336.084 635.15 334.884 635.15 333.636ZM639.549 330.432C640.569 330.432 641.373 331.08 641.397 332.1H637.737C637.881 331.056 638.625 330.432 639.549 330.432ZM642.645 334.032H641.169C640.917 334.548 640.449 334.956 639.609 334.956C638.601 334.956 637.821 334.296 637.725 333.204H642.777C642.813 332.976 642.825 332.76 642.825 332.532C642.825 330.588 641.493 329.28 639.609 329.28C637.653 329.28 636.309 330.612 636.309 332.688C636.309 334.764 637.713 336.108 639.609 336.108C641.229 336.108 642.273 335.184 642.645 334.032ZM645.539 330.36V329.388H644.171V339.144H645.539V335.04C645.971 335.556 646.751 336.108 647.843 336.108C649.583 336.108 650.951 334.704 650.951 332.664C650.951 330.624 649.583 329.28 647.843 329.28C646.763 329.28 645.959 329.808 645.539 330.36ZM649.559 332.664C649.559 334.092 648.575 334.92 647.543 334.92C646.523 334.92 645.539 334.116 645.539 332.688C645.539 331.272 646.523 330.468 647.543 330.468C648.575 330.468 649.559 331.236 649.559 332.664Z" fill="#B5B5C3"/>
<path d="M2.05248 15H3.43248V6.252H0.936484V7.5H2.05248V15ZM5.6718 6.228V11.28H6.9678C7.1958 10.632 7.7358 10.188 8.5398 10.188C9.6798 10.188 10.2438 10.836 10.2438 11.976C10.2438 13.056 9.7158 13.86 8.5398 13.86C7.6158 13.86 6.9918 13.38 6.8118 12.636H5.4798C5.6838 14.004 6.7278 15 8.5278 15C10.5558 15 11.5518 13.68 11.5518 11.94C11.5518 10.62 10.8918 9.024 8.7438 9.024C7.9638 9.024 7.2558 9.384 6.9318 9.816V7.428H10.9518V6.228H5.6718ZM12.9759 10.512C12.9759 13.056 13.6479 14.976 16.0959 14.976C18.5439 14.976 19.2159 13.056 19.2159 10.512C19.2159 8.016 18.5439 6.096 16.0959 6.096C13.6479 6.096 12.9759 8.016 12.9759 10.512ZM17.8719 10.512C17.8719 12.228 17.6919 13.728 16.0959 13.728C14.4999 13.728 14.3199 12.228 14.3199 10.512C14.3199 8.88 14.4999 7.344 16.0959 7.344C17.6919 7.344 17.8719 8.88 17.8719 10.512Z" fill="#B5B5C3"/>
<path d="M2.05248 75H3.43248V66.252H0.936484V67.5H2.05248V75ZM5.2038 74.88H11.0358V73.74H7.2318C8.6358 72.456 10.7958 70.836 10.7958 68.712C10.7958 67.14 9.7878 66.072 8.0118 66.072C6.4638 66.072 5.2398 66.996 5.1918 68.892H6.5118C6.5478 67.908 7.0638 67.236 8.0238 67.236C9.0438 67.236 9.4398 67.86 9.4398 68.772C9.4398 70.488 7.2678 72.072 5.2038 73.884V74.88ZM12.2376 70.512C12.2376 73.056 12.9096 74.976 15.3576 74.976C17.8056 74.976 18.4776 73.056 18.4776 70.512C18.4776 68.016 17.8056 66.096 15.3576 66.096C12.9096 66.096 12.2376 68.016 12.2376 70.512ZM17.1336 70.512C17.1336 72.228 16.9536 73.728 15.3576 73.728C13.7616 73.728 13.5816 72.228 13.5816 70.512C13.5816 68.88 13.7616 67.344 15.3576 67.344C16.9536 67.344 17.1336 68.88 17.1336 70.512Z" fill="#B5B5C3"/>
<path d="M1.56048 132.624C1.66848 133.872 2.50848 134.988 4.32048 134.988C6.61248 134.988 7.23649 133.416 7.23649 130.464C7.23649 127.596 6.48048 126.048 4.22448 126.048C2.38848 126.048 1.32048 127.2 1.32048 128.94C1.32048 130.788 2.56848 131.736 4.10448 131.736C4.89648 131.736 5.65248 131.436 6.04848 130.884C6.04848 133.116 5.49648 133.848 4.40448 133.848C3.49248 133.848 2.97648 133.404 2.82048 132.624H1.56048ZM4.34448 130.584C3.13248 130.584 2.62848 129.804 2.62848 128.904C2.62848 127.896 3.24048 127.188 4.26048 127.188C5.25648 127.188 5.89248 127.824 5.89248 128.94C5.89248 129.924 5.31648 130.584 4.34448 130.584ZM8.73367 130.512C8.73367 133.056 9.40567 134.976 11.8537 134.976C14.3017 134.976 14.9737 133.056 14.9737 130.512C14.9737 128.016 14.3017 126.096 11.8537 126.096C9.40567 126.096 8.73367 128.016 8.73367 130.512ZM13.6297 130.512C13.6297 132.228 13.4497 133.728 11.8537 133.728C10.2577 133.728 10.0777 132.228 10.0777 130.512C10.0777 128.88 10.2577 127.344 11.8537 127.344C13.4497 127.344 13.6297 128.88 13.6297 130.512Z" fill="#B5B5C3"/>
<path d="M7.08048 188.28C6.93648 187.116 6.08448 186.036 4.38048 186.036C2.19648 186.036 1.28448 187.692 1.28448 190.428C1.28448 193.212 1.94448 195 4.48848 195C6.36048 195 7.35648 193.74 7.35648 192.084C7.35648 190.26 6.24048 189.204 4.66848 189.204C3.75648 189.204 2.89248 189.588 2.46048 190.308C2.49648 188.016 3.13248 187.176 4.36848 187.176C5.23248 187.176 5.65248 187.572 5.82048 188.28H7.08048ZM4.36848 190.356C5.52048 190.356 6.04848 191.1 6.04848 192.144C6.04848 193.176 5.42448 193.86 4.41648 193.86C3.25248 193.86 2.61648 193.14 2.61648 192.06C2.61648 190.896 3.46848 190.356 4.36848 190.356ZM8.8157 190.512C8.8157 193.056 9.4877 194.976 11.9357 194.976C14.3837 194.976 15.0557 193.056 15.0557 190.512C15.0557 188.016 14.3837 186.096 11.9357 186.096C9.4877 186.096 8.8157 188.016 8.8157 190.512ZM13.7117 190.512C13.7117 192.228 13.5317 193.728 11.9357 193.728C10.3397 193.728 10.1597 192.228 10.1597 190.512C10.1597 188.88 10.3397 187.344 11.9357 187.344C13.5317 187.344 13.7117 188.88 13.7117 190.512Z" fill="#B5B5C3"/>
<path d="M1.09248 248.412H2.42448C2.50848 247.8 2.95248 247.224 3.91248 247.224C4.84848 247.224 5.34048 247.728 5.34048 248.484C5.34048 249.42 4.58448 249.78 3.34848 249.792H3.02448V250.92H3.33648C4.76448 250.92 5.50848 251.316 5.50848 252.468C5.50848 253.284 5.00448 253.908 3.98448 253.908C2.95248 253.908 2.35248 253.284 2.29248 252.468H0.972484C1.05648 254.184 2.34048 255.048 3.99648 255.048C5.82048 255.048 6.80448 253.992 6.80448 252.6C6.80448 251.388 6.21648 250.632 5.30448 250.356V250.308C5.98848 250.08 6.64848 249.372 6.64848 248.328C6.64848 247.056 5.70048 246.048 3.96048 246.048C2.36448 246.048 1.18848 246.9 1.09248 248.412ZM8.24148 250.512C8.24148 253.056 8.91348 254.976 11.3615 254.976C13.8095 254.976 14.4815 253.056 14.4815 250.512C14.4815 248.016 13.8095 246.096 11.3615 246.096C8.91348 246.096 8.24148 248.016 8.24148 250.512ZM13.1375 250.512C13.1375 252.228 12.9575 253.728 11.3615 253.728C9.76548 253.728 9.58548 252.228 9.58548 250.512C9.58548 248.88 9.76548 247.344 11.3615 247.344C12.9575 247.344 13.1375 248.88 13.1375 250.512Z" fill="#B5B5C3"/>
<path d="M1.11648 310.512C1.11648 313.056 1.78848 314.976 4.23648 314.976C6.68448 314.976 7.35648 313.056 7.35648 310.512C7.35648 308.016 6.68448 306.096 4.23648 306.096C1.78848 306.096 1.11648 308.016 1.11648 310.512ZM6.01248 310.512C6.01248 312.228 5.83248 313.728 4.23648 313.728C2.64048 313.728 2.46048 312.228 2.46048 310.512C2.46048 308.88 2.64048 307.344 4.23648 307.344C5.83248 307.344 6.01248 308.88 6.01248 310.512Z" fill="#B5B5C3"/>
<path d="M102.677 194H126.711C128.92 194 130.711 195.791 130.711 198V307C130.711 309.209 128.92 311 126.711 311H102.677V194Z" fill="#E5EAEE"/>
<rect x="89.269" y="164" width="17.0641" height="147" rx="4" fill="#FFA800"/>
<path d="M207.499 145H231.533C233.742 145 235.533 146.791 235.533 149V307C235.533 309.209 233.742 311 231.533 311H207.499V145Z" fill="#E5EAEE"/>
<rect x="194.091" y="115" width="17.0641" height="196" rx="4" fill="#FFA800"/>
<path d="M312.321 94H336.355C338.564 94 340.355 95.7909 340.355 98V307C340.355 309.209 338.564 311 336.355 311H312.321V94Z" fill="#E5EAEE"/>
<rect x="298.913" y="64" width="17.064" height="247" rx="4" fill="#FFA800"/>
<path d="M417.143 133.535H441.177C443.386 133.535 445.177 135.326 445.177 137.535V307C445.177 309.209 443.386 311 441.177 311H417.143V133.535Z" fill="#E5EAEE"/>
<rect x="403.735" y="104" width="17.0641" height="207" rx="4" fill="#FFA800"/>
<path d="M521.965 102.671H545.999C548.208 102.671 549.999 104.462 549.999 106.671V307C549.999 309.209 548.208 311 545.999 311H521.965V102.671Z" fill="#E5EAEE"/>
<rect x="508.557" y="73" width="17.0641" height="238" rx="4" fill="#FFA800"/>
<path d="M626.787 54H650.821C653.03 54 654.821 55.7909 654.821 58V307C654.821 309.209 653.03 311 650.821 311H626.787V54Z" fill="#E5EAEE"/>
<rect x="613.38" y="24" width="17.064" height="287" rx="4" fill="#FFA800"/>
</svg>
