<svg width="40" height="40" viewBox="0 0 40 40" fill="none" xmlns="http://www.w3.org/2000/svg">
<rect width="40" height="40" rx="12" fill="white"/>
<path d="M30.1803 37.2525L30.1318 36.8158C30.1126 36.6431 29.957 36.5186 29.7843 36.5378L29.7571 36.5408L29.2876 32.7851C29.1854 31.9682 28.6233 31.2824 27.8422 31.0221L25.2335 30.1525C24.8753 30.033 24.4823 30.1091 24.206 30.3445L23.4376 30.0883C23.001 29.9428 22.7067 29.5343 22.7067 29.0742V27.3504L25.009 26.3911C26.2042 25.8933 26.9826 24.7256 26.9826 23.431V22.8965C27.8681 22.8965 28.586 22.1786 28.586 21.293C28.586 20.4075 27.8681 19.6896 26.9826 19.6896V18.6206C26.9826 17.1447 25.7861 15.9482 24.3102 15.9482H14.6895C13.2136 15.9482 12.0171 17.1447 12.0171 18.6206V19.6896C11.1316 19.6896 10.4137 20.4075 10.4137 21.293C10.4137 22.1786 11.1316 22.8965 12.0171 22.8965V23.431C12.0171 24.7255 12.7955 25.8932 13.9906 26.3912L16.293 27.3506V29.0743C16.293 29.5345 15.9985 29.9429 15.5621 30.0885L14.7936 30.3446C14.5174 30.1092 14.1244 30.0331 13.7661 30.1526L11.1574 31.0222C10.3763 31.2826 9.8142 31.9683 9.71205 32.7852L9.24257 36.5409L9.21538 36.5379C9.04261 36.5187 8.88708 36.6432 8.86784 36.816L8.81933 37.2526C8.80016 37.4253 8.92462 37.5809 9.09733 37.6001L9.87914 37.687V38.931C9.87914 39.5214 10.3577 40 10.9481 40H13.6205H25.3791H28.0515C28.6419 40 29.1204 39.5214 29.1204 38.931V37.687L29.9022 37.6001C30.075 37.5808 30.1996 37.4252 30.1803 37.2525Z" fill="#FDC88E"/>
<path d="M22.7067 27.3506L16.2929 25.9253V29.0744C16.2929 29.4592 16.0801 29.798 15.7573 29.987C20.2399 30.7716 22.7067 27.3506 22.7067 27.3506Z" fill="#F5B97A"/>
<path d="M26.9825 19.6896V18.6206C26.9825 17.1447 25.786 15.9482 24.3101 15.9482H14.6894C13.2135 15.9482 12.017 17.1447 12.017 18.6206V19.6896C11.1314 19.6896 10.4136 20.4075 10.4136 21.293C10.4136 22.1786 11.1314 22.8965 12.017 22.8965V23.431C12.017 24.7255 12.7954 25.8932 13.9905 26.3912L17.4439 27.8301C18.0953 28.1016 18.794 28.2413 19.4997 28.2413C20.2053 28.2413 20.904 28.1016 21.5554 27.8301L25.009 26.3911C26.2041 25.8933 26.9825 24.7256 26.9825 23.431V22.8965C27.868 22.8965 28.5859 22.1786 28.5859 21.293C28.5859 20.4075 27.868 19.6896 26.9825 19.6896Z" fill="#FFD7A3"/>
<path d="M15.7586 21.8276C15.4646 21.8276 15.2241 21.587 15.2241 21.2931V20.7586C15.2241 20.4646 15.4646 20.2241 15.7586 20.2241C16.0526 20.2241 16.2931 20.4646 16.2931 20.7586V21.2931C16.2931 21.587 16.0526 21.8276 15.7586 21.8276Z" fill="#623F33"/>
<path d="M23.2415 21.8276C22.9475 21.8276 22.707 21.587 22.707 21.2931V20.7586C22.707 20.4646 22.9475 20.2241 23.2415 20.2241C23.5355 20.2241 23.776 20.4646 23.776 20.7586V21.2931C23.776 21.587 23.5355 21.8276 23.2415 21.8276Z" fill="#623F33"/>
<path d="M19.4996 25.5835C18.5494 25.5835 17.6606 25.3497 17.0611 24.9418C16.8171 24.7758 16.7536 24.4433 16.9199 24.1993C17.0856 23.9556 17.4184 23.8921 17.6624 24.0582C18.0825 24.3439 18.7694 24.5146 19.4996 24.5146C20.2299 24.5146 20.9167 24.3439 21.3369 24.0582C21.5814 23.8917 21.9134 23.9553 22.0794 24.1993C22.2456 24.4433 22.1822 24.7758 21.9382 24.9418C21.3388 25.3497 20.4499 25.5835 19.4996 25.5835Z" fill="#E4B07B"/>
<path d="M14.8228 25.2831C14.3897 24.8188 14.155 24.2061 14.155 23.5711V18.8539C15.6301 18.056 19.9407 15.9482 24.3101 15.9482H14.6894C14.5054 15.9482 14.3272 15.9697 14.1549 16.0071V16.0021C12.9352 16.2498 12.017 17.3278 12.017 18.6206V19.6896C11.1314 19.6896 10.4136 20.4075 10.4136 21.293C10.4136 22.1786 11.1314 22.8965 12.017 22.8965V23.431C12.017 24.7256 12.7954 25.8933 13.9905 26.3912L17.4439 27.8301C17.6129 27.9006 17.7854 27.9612 17.9601 28.0138C16.4339 26.8973 15.418 25.9213 14.8228 25.2831Z" fill="#FDC88E"/>
<path d="M28.5862 11.6724C28.5862 11.6724 28.3949 11.532 28.0377 11.321C27.9409 10.0883 27.5173 9.53448 27.5173 9.53448L25.5665 10.1847C23.8666 9.57096 21.4767 9 18.4311 9C18.4311 9 18.0803 9.36746 17.3621 9.53448C17.3621 9.53448 15.5415 9.13362 13.6208 9L12.5518 11.6724C12.5518 11.6724 9.87939 11.6502 9.87939 14.8793C9.87939 16.0659 10.5422 19.0285 10.8234 20.2321C11.1171 19.9018 11.5406 19.6896 12.0173 19.6896V18.6206C12.0173 17.158 13.1934 15.9733 14.651 15.9521C14.2407 16.8423 14.1552 17.5517 14.1552 17.5517C15.4914 16.6608 17.2285 15.9482 19.5 15.9482H24.3104C25.7863 15.9482 26.9828 17.1447 26.9828 18.6206V19.6896C27.4977 19.6896 27.9509 19.9367 28.2443 20.314C28.7076 19.1478 29.7667 15.786 28.5862 11.6724Z" fill="#8DB9E2"/>
<path d="M27.5172 9.53448L25.5665 10.1847C23.8666 9.57096 21.4767 9 18.4311 9C18.4311 9 18.0803 9.36746 17.3621 9.53448C17.3621 9.53448 15.5415 9.13362 13.6208 9L12.5518 11.6724C12.5518 11.6724 9.87939 11.6502 9.87939 14.8793C9.87939 16.0659 10.5422 19.0285 10.8234 20.2321C11.1171 19.9018 11.5406 19.6896 12.0173 19.6896V18.6206C12.0173 17.2256 13.0902 16.0933 14.4537 15.972C14.3104 16.3706 14.1552 16.9386 14.1552 17.5517C16.2598 14.8793 19.249 13.9151 21.638 13.2758C24.0097 12.6411 24.3104 11.6724 24.3104 11.6724C24.3104 11.6724 26.6487 11.5388 27.5172 9.53448Z" fill="#6AA2DE"/>
<path d="M25.3791 39.9996V37.3272H29.8553L29.2875 32.7849C29.1854 31.9679 28.6232 31.2822 27.8421 31.0218L25.2334 30.1522C24.7791 30.0008 24.268 30.1625 24.0114 30.5669C23.064 32.0597 21.3988 33.0513 19.4998 33.0513C17.6008 33.0513 15.9355 32.0596 14.9881 30.5668C14.7315 30.1625 14.2204 30.0007 13.7661 30.1522L11.1573 31.0218C10.3763 31.2821 9.81412 31.9679 9.71197 32.7848L9.20361 36.8517L13.6205 37.3272V39.9996H25.3791V39.9996Z" fill="#9BCE7A"/>
<path d="M13.6205 37.7309V36.5213C13.6205 36.007 13.4352 35.5101 13.0985 35.1214L10.1576 31.7266C9.92032 32.027 9.76145 32.39 9.71207 32.785L9.15381 37.2511C10.0039 37.3021 12.265 37.567 13.6205 37.7309Z" fill="#8ABE69"/>
<path d="M13.6206 37.027L9.21538 36.5376C9.04261 36.5184 8.88708 36.6429 8.86784 36.8156L8.81933 37.2523C8.80016 37.425 8.92462 37.5806 9.09733 37.5997L13.6206 38.1024V37.027Z" fill="#76AB5F"/>
<path d="M25.3789 37.7309V36.5213C25.3789 36.007 25.5642 35.5101 25.9009 35.1214L28.8418 31.7266C29.0791 32.027 29.238 32.39 29.2874 32.785L29.8456 37.2511C28.9956 37.3021 26.7344 37.567 25.3789 37.7309Z" fill="#8ABE69"/>
<path d="M25.3789 37.027L29.7841 36.5376C29.9569 36.5184 30.1124 36.6429 30.1316 36.8156L30.1801 37.2523C30.1993 37.425 30.0749 37.5806 29.9021 37.5997L25.3789 38.1024V37.027Z" fill="#76AB5F"/>
<path d="M25.2334 30.1522C24.7791 30.0008 24.268 30.1625 24.0114 30.5669C23.064 32.0597 21.3987 33.0513 19.4997 33.0513C17.6007 33.0513 15.9355 32.0596 14.9881 30.5668C14.7314 30.1625 14.2203 30.0007 13.766 30.1522L13.5933 30.2098C14.5686 32.5082 16.8458 34.1203 19.4997 34.1203C22.1537 34.1203 24.431 32.5081 25.4062 30.2098L25.2334 30.1522Z" fill="#8ABE69"/>
<path d="M19.4998 38.9308C19.795 38.9308 20.0343 38.6915 20.0343 38.3963C20.0343 38.1011 19.795 37.8618 19.4998 37.8618C19.2046 37.8618 18.9653 38.1011 18.9653 38.3963C18.9653 38.6915 19.2046 38.9308 19.4998 38.9308Z" fill="#82B8AD"/>
<path d="M15.2239 38.9308C15.5191 38.9308 15.7584 38.6915 15.7584 38.3963C15.7584 38.1011 15.5191 37.8618 15.2239 37.8618C14.9287 37.8618 14.6895 38.1011 14.6895 38.3963C14.6895 38.6915 14.9287 38.9308 15.2239 38.9308Z" fill="#82B8AD"/>
<path d="M23.7757 38.9308C24.0709 38.9308 24.3102 38.6915 24.3102 38.3963C24.3102 38.1011 24.0709 37.8618 23.7757 37.8618C23.4805 37.8618 23.2412 38.1011 23.2412 38.3963C23.2412 38.6915 23.4805 38.9308 23.7757 38.9308Z" fill="#82B8AD"/>
<path d="M21.638 38.9308C21.9332 38.9308 22.1725 38.6915 22.1725 38.3963C22.1725 38.1011 21.9332 37.8618 21.638 37.8618C21.3428 37.8618 21.1035 38.1011 21.1035 38.3963C21.1035 38.6915 21.3428 38.9308 21.638 38.9308Z" fill="#6AA2DE"/>
<path d="M17.3621 38.9308C17.6573 38.9308 17.8966 38.6915 17.8966 38.3963C17.8966 38.1011 17.6573 37.8618 17.3621 37.8618C17.0669 37.8618 16.8276 38.1011 16.8276 38.3963C16.8276 38.6915 17.0669 38.9308 17.3621 38.9308Z" fill="#6AA2DE"/>
<path d="M20.5687 37.3273C20.8638 37.3273 21.1031 37.088 21.1031 36.7928C21.1031 36.4976 20.8638 36.2583 20.5687 36.2583C20.2735 36.2583 20.0342 36.4976 20.0342 36.7928C20.0342 37.088 20.2735 37.3273 20.5687 37.3273Z" fill="#6AA2DE"/>
<path d="M16.2933 37.3273C16.5885 37.3273 16.8277 37.088 16.8277 36.7928C16.8277 36.4976 16.5885 36.2583 16.2933 36.2583C15.9981 36.2583 15.7588 36.4976 15.7588 36.7928C15.7588 37.088 15.9981 37.3273 16.2933 37.3273Z" fill="#6AA2DE"/>
<path d="M24.8445 37.3273C25.1397 37.3273 25.379 37.088 25.379 36.7928C25.379 36.4976 25.1397 36.2583 24.8445 36.2583C24.5494 36.2583 24.3101 36.4976 24.3101 36.7928C24.3101 37.088 24.5494 37.3273 24.8445 37.3273Z" fill="#6AA2DE"/>
<path d="M14.1551 37.3273C14.4503 37.3273 14.6896 37.088 14.6896 36.7928C14.6896 36.4976 14.4503 36.2583 14.1551 36.2583C13.8599 36.2583 13.6206 36.4976 13.6206 36.7928C13.6206 37.088 13.8599 37.3273 14.1551 37.3273Z" fill="#82B8AD"/>
<path d="M22.7068 37.3273C23.002 37.3273 23.2413 37.088 23.2413 36.7928C23.2413 36.4976 23.002 36.2583 22.7068 36.2583C22.4117 36.2583 22.1724 36.4976 22.1724 36.7928C22.1724 37.088 22.4117 37.3273 22.7068 37.3273Z" fill="#82B8AD"/>
<path d="M18.431 37.3273C18.7262 37.3273 18.9654 37.088 18.9654 36.7928C18.9654 36.4976 18.7262 36.2583 18.431 36.2583C18.1358 36.2583 17.8965 36.4976 17.8965 36.7928C17.8965 37.088 18.1358 37.3273 18.431 37.3273Z" fill="#82B8AD"/>
</svg>
