<svg width="40" height="40" viewBox="0 0 40 40" fill="none" xmlns="http://www.w3.org/2000/svg">
<rect width="40" height="40" rx="12" fill="white"/>
<g clip-path="url(#clip0_639_2244)">
<path d="M30.1479 38.1666L29.4595 32.6594C29.3556 31.8281 28.7836 31.1304 27.9888 30.8655L25.3344 29.9806C24.9699 29.8591 24.57 29.9365 24.2889 30.176L23.5071 29.9154C23.063 29.7673 22.7634 29.3517 22.7634 28.8835V27.1295L25.106 26.1533C26.322 25.6467 27.1141 24.4586 27.1141 23.1413V22.5974C28.0152 22.5974 28.7456 21.867 28.7456 20.9659C28.7456 20.5201 28.5667 20.1162 28.2769 19.8217L28.8503 15.2336C29.1181 13.0912 28.118 10.9883 26.2872 9.84408C25.4059 9.29351 24.3876 9.00146 23.3485 9.00146C23.3485 9.00146 15.5656 9.00303 15.5318 9.00554C14.3922 9.06108 13.4068 9.70166 12.8679 10.633H12.7153C11.1092 10.633 9.76478 11.9995 9.94561 13.5953C9.9469 13.6068 9.94826 13.6183 9.94969 13.6297L10.7237 19.8218C10.4339 20.1163 10.2549 20.5202 10.2549 20.966C10.2549 21.8671 10.9854 22.5975 11.8864 22.5975V23.1414C11.8864 24.4586 12.6785 25.6467 13.8945 26.1535L16.2372 27.1296V28.8836C16.2372 29.3517 15.9376 29.7674 15.4935 29.9154L14.7116 30.1761C14.4305 29.9366 14.0307 29.8591 13.6662 29.9807L11.0117 30.8655C10.217 31.1304 9.645 31.8282 9.54106 32.6595L8.85269 38.1667C8.73094 39.1405 9.49028 40.0006 10.4716 40.0006H10.4869H28.5137H28.529C29.5103 40.0005 30.2696 39.1404 30.1479 38.1666Z" fill="#FFD7A3"/>
<path d="M16.2374 28.8827C16.2374 28.883 16.2374 28.8833 16.2374 28.8835C16.2374 28.9098 16.2363 28.9358 16.2343 28.9616C16.2333 28.9753 16.2316 28.9888 16.2301 29.0024C16.2289 29.0131 16.2278 29.0239 16.2262 29.0345C16.2233 29.0555 16.2196 29.0761 16.2154 29.0967C16.2153 29.097 16.2153 29.0973 16.2152 29.0978C16.1549 29.3969 15.9714 29.6572 15.7104 29.8142C20.26 30.6002 22.7635 27.0835 22.7635 27.0835H16.2374V28.8827Z" fill="#FDC88E"/>
<path d="M26.2871 9.84373C25.4059 9.29302 24.3876 9.00098 23.3485 9.00098H23.3071V20.4217H28.2017L28.8503 15.2333C29.118 13.0909 28.1179 10.988 26.2871 9.84373Z" fill="#734A3E"/>
<path d="M9.94555 13.5946C9.94684 13.6061 9.9482 13.6176 9.94963 13.629L10.7987 20.4215H14.0618V10.6323H12.7152C11.1092 10.6323 9.76472 11.9988 9.94555 13.5946Z" fill="#623F33"/>
<path d="M27.114 19.3338V18.2461C27.114 16.7443 25.8966 15.5269 24.3948 15.5269H14.6056C13.1038 15.5269 11.8864 16.7443 11.8864 18.2461V19.3338C10.9853 19.3338 10.2549 20.0643 10.2549 20.9653C10.2549 21.8664 10.9853 22.5968 11.8864 22.5968V23.1407C11.8864 24.4579 12.6785 25.646 13.8944 26.1527L17.4084 27.6169C18.0712 27.8931 18.7821 28.0352 19.5001 28.0352C20.2182 28.0352 20.929 27.893 21.5918 27.6169L25.106 26.1527C26.322 25.646 27.1141 24.4579 27.1141 23.1406V22.5967C28.0152 22.5967 28.7456 21.8663 28.7456 20.9652C28.7456 20.0641 28.0151 19.3338 27.114 19.3338Z" fill="#FFE1B2"/>
<path d="M15.6937 21.5095C15.3946 21.5095 15.1499 21.2647 15.1499 20.9656V20.4218C15.1499 20.1227 15.3946 19.8779 15.6937 19.8779C15.9929 19.8779 16.2376 20.1227 16.2376 20.4218V20.9656C16.2376 21.2647 15.9929 21.5095 15.6937 21.5095Z" fill="#623F33"/>
<path d="M23.3075 21.5095C23.0084 21.5095 22.7637 21.2647 22.7637 20.9656V20.4218C22.7637 20.1227 23.0084 19.8779 23.3075 19.8779C23.6066 19.8779 23.8514 20.1227 23.8514 20.4218V20.9656C23.8514 21.2647 23.6066 21.5095 23.3075 21.5095Z" fill="#623F33"/>
<path d="M19.5005 25.3311C18.5337 25.3311 17.6293 25.0932 17.0193 24.6781C16.771 24.5093 16.7064 24.1709 16.8756 23.9227C17.0442 23.6747 17.3828 23.6101 17.6311 23.779C18.0586 24.0698 18.7575 24.2435 19.5005 24.2435C20.2436 24.2435 20.9425 24.0698 21.37 23.779C21.6188 23.6096 21.9566 23.6744 22.1255 23.9227C22.2946 24.1709 22.2301 24.5093 21.9818 24.6781C21.3718 25.0932 20.4674 25.3311 19.5005 25.3311Z" fill="#E4B07B"/>
<path d="M24.3948 15.5269H14.6056C14.4191 15.5269 14.2373 15.5464 14.0618 15.5827V15.5816C12.8207 15.8337 11.8864 16.9306 11.8864 18.2461V19.3338C10.9853 19.3338 10.2549 20.0642 10.2549 20.9653C10.2549 21.8664 10.9853 22.5968 11.8864 22.5968V23.1407C11.8864 24.458 12.6785 25.6461 13.8944 26.1527L17.4083 27.6169C17.5803 27.6885 17.7558 27.7503 17.9336 27.8038C16.3807 26.6678 15.347 25.6746 14.7412 25.0253C14.3006 24.5528 14.0618 23.9294 14.0618 23.2833V17.119C17.0812 19.5283 23.593 19.3336 27.114 19.3336V18.2461C27.114 16.7443 25.8966 15.5269 24.3948 15.5269Z" fill="#FFD7A3"/>
<path d="M23.307 9.00087H15.6932C13.8911 9.00087 12.4302 10.4618 12.4302 12.2639C12.4302 15.408 15.4211 17.3117 17.8686 18.2462C17.8686 18.2462 17.5957 17.748 17.228 17.0116C19.3987 17.7378 22.7513 18.2462 27.3179 18.2462C27.3179 18.2462 27.3179 17.0735 27.3179 16.6827C27.3179 8.75159 23.307 9.00087 23.307 9.00087Z" fill="#734A3E"/>
<path d="M27.1358 18.7876H24.3611C24.3592 18.7876 24.3576 18.7881 24.3558 18.7882C24.0446 18.6163 23.6873 18.5181 23.3074 18.5181C22.3045 18.5181 21.4584 19.2005 21.2078 20.1251C20.8969 19.4959 20.2485 19.0619 19.5005 19.0619C18.7525 19.0619 18.1041 19.4959 17.7931 20.1251C17.5426 19.2005 16.6964 18.5181 15.6936 18.5181C15.314 18.5181 14.957 18.616 14.6461 18.7876H11.8867C11.7364 18.7876 11.6147 18.9092 11.6147 19.0595C11.6147 19.2098 11.7364 19.3315 11.8867 19.3315H13.9991C13.6986 19.7045 13.5182 20.1782 13.5182 20.6934C13.5182 21.893 14.4941 22.8688 15.6936 22.8688C16.7086 22.8688 17.5634 22.1699 17.8022 21.2281C17.8237 21.2335 17.8458 21.2373 17.8689 21.2373C18.0192 21.2373 18.1409 21.1157 18.1409 20.9654C18.1409 20.2157 18.7508 19.6058 19.5005 19.6058C20.2501 19.6058 20.8601 20.2157 20.8601 20.9654C20.8601 21.1157 20.9817 21.2373 21.132 21.2373C21.1551 21.2373 21.1772 21.2335 21.1987 21.2281C21.4376 22.1699 22.2924 22.8688 23.3074 22.8688C24.5069 22.8688 25.4827 21.893 25.4827 20.6934C25.4827 20.1782 25.3023 19.7045 25.0018 19.3315H27.1358C27.2861 19.3315 27.4077 19.2098 27.4077 19.0595C27.4077 18.9092 27.2861 18.7876 27.1358 18.7876ZM15.6936 22.325C14.794 22.325 14.0621 21.5931 14.0621 20.6934C14.0621 19.7938 14.794 19.0619 15.6936 19.0619C16.5933 19.0619 17.3252 19.7938 17.3252 20.6934C17.3252 21.5931 16.5933 22.325 15.6936 22.325ZM23.3074 22.325C22.4078 22.325 21.6759 21.5931 21.6759 20.6934C21.6759 19.7938 22.4078 19.0619 23.3074 19.0619C24.2071 19.0619 24.939 19.7938 24.939 20.6934C24.939 21.5931 24.2071 22.325 23.3074 22.325Z" fill="#734A3E"/>
<path d="M19.5003 33.3378C21.7151 33.3378 23.6419 32.106 24.634 30.2903L23.5071 29.9147C23.3978 29.8783 23.2976 29.825 23.2082 29.7593C22.4433 31.007 21.0711 31.8422 19.5004 31.8422C17.9296 31.8422 16.5574 31.007 15.7926 29.7593C15.7031 29.8249 15.6029 29.8782 15.4936 29.9147L14.3667 30.2903C15.3586 32.106 17.2855 33.3378 19.5003 33.3378Z" fill="#B97E63"/>
<path d="M30.1478 38.1658L29.4594 32.6586C29.3556 31.8273 28.7835 31.1296 27.9888 30.8646L25.3344 29.9798C24.8721 29.8257 24.3521 29.9903 24.091 30.4017C23.1269 31.9206 21.4325 32.9297 19.5003 32.9297C17.568 32.9297 15.8736 31.9206 14.9095 30.4017C14.6484 29.9903 14.1284 29.8257 13.6661 29.9798L11.0117 30.8646C10.2169 31.1296 9.64493 31.8273 9.54106 32.6586L8.85269 38.1658C8.73094 39.1395 9.49028 39.9997 10.4716 39.9997H28.5289C29.5102 39.9997 30.2695 39.1396 30.1478 38.1658Z" fill="#FFA64E"/>
<path d="M9.99442 31.5815C9.75295 31.8873 9.59129 32.2566 9.54106 32.6586L8.85269 38.1658C8.73094 39.1396 9.49028 39.9997 10.4716 39.9997H13.518V36.4602C13.518 35.9369 13.3295 35.4313 12.9869 35.0358L9.99442 31.5815Z" fill="#FF8C51"/>
<path d="M29.006 31.5815C29.2475 31.8873 29.4092 32.2566 29.4594 32.6586L30.1478 38.1658C30.2695 39.1396 29.5102 39.9997 28.5288 39.9997H25.4824V36.4602C25.4824 35.9369 25.671 35.4313 26.0136 35.0358L29.006 31.5815Z" fill="#FF8C51"/>
</g>
<defs>
<clipPath id="clip0_639_2244">
<rect width="31" height="31" fill="white" transform="translate(4 9)"/>
</clipPath>
</defs>
</svg>
