<svg width="40" height="40" viewBox="0 0 40 40" fill="none" xmlns="http://www.w3.org/2000/svg">
<rect width="40" height="40" rx="12" fill="white"/>
<g clip-path="url(#clip0_639_2430)">
<path d="M24.8289 28.2134C23.7128 27.8576 20.9574 27.69 19.4919 27.6802C18.0263 27.69 15.2709 27.8576 14.1548 28.2134L19.4919 33.0835L24.8289 28.2134Z" fill="#A63F44"/>
<path d="M29.9407 38.1551L29.2652 32.7505C29.1632 31.9348 28.6018 31.25 27.822 30.99L25.8911 30.3464C25.8962 30.3153 25.9641 29.841 25.3904 29.4585C24.9235 29.1472 25.535 28.5801 24.8234 28.2132L23.0331 29.8245C22.8218 29.6269 22.6939 29.3474 22.6939 29.045V27.3237L24.9929 26.3657C26.1862 25.8685 26.9636 24.7025 26.9636 23.4098V16.4049C26.9636 14.9311 25.7688 13.7363 24.295 13.7363H14.6883C13.2145 13.7363 12.0197 14.9311 12.0197 16.4049V23.4098C12.0197 24.7025 12.797 25.8684 13.9903 26.3657L16.2894 27.3237V29.0449C16.2894 29.3485 16.1604 29.6291 15.9476 29.8268L14.1544 28.2132C13.4428 28.5801 14.0544 29.1472 13.5874 29.4585C12.9942 29.854 13.087 30.3476 13.087 30.348L11.1611 30.99C10.3812 31.25 9.81987 31.9348 9.71793 32.7505L9.04239 38.1551C8.92291 39.1107 9.6681 39.9548 10.6312 39.9548H10.6462H28.337H28.352C29.315 39.9548 30.0602 39.1107 29.9407 38.1551Z" fill="#FDC88E"/>
<path d="M22.6937 27.3241L16.2892 25.9009V29.0454C16.2892 29.4296 16.0767 29.768 15.7544 29.9567C20.2305 30.7401 22.6937 27.3241 22.6937 27.3241Z" fill="#FDC88E"/>
<path d="M24.9928 26.3661L21.5441 27.8031C20.8936 28.0741 20.196 28.2136 19.4914 28.2136C18.7867 28.2136 18.0891 28.0741 17.4386 27.8031L13.9901 26.3662C12.7968 25.869 12.0195 24.703 12.0195 23.4103V16.4054C12.0195 14.9316 13.2143 13.7368 14.6881 13.7368H24.2948C25.7686 13.7368 26.9633 14.9316 26.9633 16.4054V23.4102C26.9634 24.703 26.1861 25.8689 24.9928 26.3661Z" fill="#FFE1B2"/>
<path d="M15.7554 21.8091C15.4618 21.8091 15.2217 21.569 15.2217 21.2754V20.7417C15.2217 20.4482 15.4618 20.208 15.7554 20.208C16.0489 20.208 16.2891 20.4482 16.2891 20.7417V21.2754C16.2891 21.569 16.0489 21.8091 15.7554 21.8091Z" fill="#623F33"/>
<path d="M23.2276 21.8091C22.934 21.8091 22.6938 21.569 22.6938 21.2754V20.7417C22.6938 20.4482 22.934 20.208 23.2276 20.208C23.5211 20.208 23.7613 20.4482 23.7613 20.7417V21.2754C23.7613 21.569 23.5211 21.8091 23.2276 21.8091Z" fill="#623F33"/>
<path d="M19.4914 25.5597C18.5425 25.5597 17.655 25.3262 17.0563 24.9189C16.8127 24.7532 16.7493 24.4212 16.9154 24.1775C17.0808 23.9341 17.4131 23.8708 17.6568 24.0365C18.0763 24.3219 18.7622 24.4923 19.4914 24.4923C20.2206 24.4923 20.9064 24.3219 21.326 24.0365C21.5702 23.8703 21.9017 23.9339 22.0674 24.1775C22.2334 24.4212 22.1701 24.7532 21.9264 24.9189C21.3278 25.3262 20.4402 25.5597 19.4914 25.5597Z" fill="#E4B07B"/>
<path d="M22.0265 19.4075V15.805L12.0195 15.7383V23.4103C12.0195 24.7031 12.7968 25.869 13.9901 26.3663L17.4385 27.8031C17.6073 27.8735 17.7796 27.934 17.954 27.9865C16.43 26.8717 15.4156 25.8971 14.8212 25.2598C14.3887 24.7962 14.1544 24.1843 14.1544 23.5503V17.673C15.1217 18.2067 18.3573 19.4075 22.0265 19.4075Z" fill="#FFD7A3"/>
<path d="M29.957 38.1023L29.254 32.7012C29.1478 31.886 28.583 31.2041 27.8018 30.9481L24.7836 29.959C24.5429 29.8802 24.2753 29.9788 24.1554 30.2019C23.2599 31.8685 19.6885 33.016 19.4819 33.017C19.2753 33.0181 15.6923 31.907 14.7799 30.2496C14.6578 30.0277 14.3892 29.9318 14.1493 30.0131L11.1413 31.0328C10.3627 31.2968 9.80482 31.9844 9.70702 32.8006L9.05896 38.2086C8.94435 39.1648 9.69381 40.0051 10.6569 40.0002L28.3775 39.9101C29.3405 39.9052 30.0813 39.0573 29.957 38.1023Z" fill="#FF4F4F"/>
<path d="M10.1628 31.6938C9.92588 31.9939 9.76723 32.3563 9.71793 32.7508L9.04239 38.1554C8.92291 39.111 9.6681 39.9551 10.6312 39.9551H13.6208V36.4815C13.6208 35.968 13.4357 35.4718 13.0996 35.0837L10.1628 31.6938Z" fill="#F23F44"/>
<path d="M28.8203 31.6938C29.0572 31.9939 29.2159 32.3563 29.2652 32.7508L29.9407 38.1554C30.0602 39.111 29.315 39.9551 28.3519 39.9551H25.3623V36.4815C25.3623 35.968 25.5474 35.4718 25.8835 35.0837L28.8203 31.6938Z" fill="#F23F44"/>
<path d="M25.3902 29.4587C24.9232 29.1474 25.5348 28.5803 24.8231 28.2134L19.4887 33.0143L14.1543 28.2134C13.4426 28.5803 14.0542 29.1474 13.5872 29.4587C12.9938 29.8543 13.0868 30.3483 13.0868 30.3483L19.4861 33.5479V33.5505L19.4887 33.5491L19.4914 33.5505V33.5478L25.8906 30.3482C25.8906 30.3482 25.9836 29.8543 25.3902 29.4587Z" fill="#F23F44"/>
<path d="M19.4913 36.2192C17.428 36.2192 15.7554 37.8919 15.7554 39.9552H23.2273C23.2273 37.8919 21.5546 36.2192 19.4913 36.2192Z" fill="#FFC84A"/>
<path d="M14.3364 16.0005C14.4338 16.0881 15.889 17.456 17.8904 17.5394V16.4719C17.8904 16.4719 19.2692 18.2398 22.6938 18.6735V16.4719L23.7612 18.6068L27.297 16.8389V14.4038C27.297 11.8247 25.2062 9.73389 22.627 9.73389H16.356C13.7768 9.73389 11.686 11.8247 11.686 14.4038V18.4066L14.3362 16.0004C14.3362 16.0004 14.3363 16.0005 14.3364 16.0005Z" fill="#9D6E48"/>
<path d="M15.9021 9.75635C13.5361 9.98464 11.686 11.978 11.686 14.404V18.4068L14.3362 16.0006C14.3362 16.0007 14.3363 16.0007 14.3364 16.0007C14.4338 16.0883 15.889 17.4561 17.8904 17.5395C16.608 15.2494 15.9964 11.4784 15.9021 9.75635Z" fill="#8D5F3D"/>
<path d="M10.9522 22.8765H10.4185C10.1237 22.8765 9.88477 22.6376 9.88477 22.3428V20.7417C9.88477 20.447 10.1237 20.208 10.4185 20.208H10.9522C11.2469 20.208 11.4859 20.447 11.4859 20.7417V22.3428C11.4859 22.6376 11.2469 22.8765 10.9522 22.8765Z" fill="#A63F44"/>
<path d="M28.0308 20.208H28.5645C28.8592 20.208 29.0982 20.447 29.0982 20.7417V22.3428C29.0982 22.6376 28.8592 22.8765 28.5645 22.8765H28.0308C27.736 22.8765 27.4971 22.6376 27.4971 22.3428V20.7417C27.4971 20.447 27.736 20.208 28.0308 20.208Z" fill="#A63F44"/>
<path d="M28.0308 20.2079H26.9634V14.3371C26.9634 11.9828 25.048 10.0674 22.6937 10.0674H16.2892C13.935 10.0674 12.0196 11.9828 12.0196 14.3371V20.2079H10.9521V14.3371C10.9521 11.3944 13.3463 9 16.2892 9H22.6937C25.6366 9 28.0308 11.3944 28.0308 14.3371V20.2079Z" fill="#A63F44"/>
<path d="M11.219 23.944C10.7769 23.944 10.4185 23.5855 10.4185 23.1434V19.9412C10.4185 19.4991 10.7769 19.1406 11.219 19.1406C11.6611 19.1406 12.0196 19.4991 12.0196 19.9412V23.1434C12.0196 23.5856 11.6611 23.944 11.219 23.944Z" fill="#F23F44"/>
<path d="M27.7639 19.1406C28.2061 19.1406 28.5645 19.4991 28.5645 19.9412V23.1434C28.5645 23.5855 28.2061 23.944 27.7639 23.944C27.3218 23.944 26.9634 23.5855 26.9634 23.1434V19.9412C26.9634 19.4991 27.3218 19.1406 27.7639 19.1406Z" fill="#F23F44"/>
</g>
<defs>
<clipPath id="clip0_639_2430">
<rect width="31" height="31" fill="white" transform="translate(4 9)"/>
</clipPath>
</defs>
</svg>
