<svg width="40" height="40" viewBox="0 0 40 40" fill="none" xmlns="http://www.w3.org/2000/svg">
<rect width="40" height="40" rx="12" fill="white"/>
<path d="M29.6407 36.6589L29.5387 36.3097C29.4895 36.141 29.3252 36.0376 29.1561 36.0591L28.7998 33.3866C28.6827 32.5085 28.1382 31.7456 27.346 31.3495L26.1947 30.7739C26.0203 30.6867 25.8203 30.767 25.7388 30.9353L23.4375 30.0885C23.001 29.943 22.7066 29.5345 22.7066 29.0744V27.3506L25.0089 26.3913C26.204 25.8934 26.9825 24.7257 26.9825 23.4311V22.8966C27.868 22.8966 28.5859 22.1787 28.5859 21.2932C28.5859 20.4076 27.868 19.6897 26.9825 19.6897V18.6208C26.9825 17.1449 25.7859 14.8794 24.31 14.8794H14.6894C13.2134 14.8794 12.017 17.1449 12.017 18.6208V19.6897C11.1314 19.6897 10.4135 20.4076 10.4135 21.2932C10.4135 22.1787 11.1314 22.8966 12.017 22.8966V23.4311C12.017 24.7257 12.7954 25.8934 13.9904 26.3913L16.2928 27.3507V29.0745C16.2928 29.5346 15.9984 29.9431 15.5619 30.0886L13.306 30.9187C13.2207 30.7614 13.0282 30.6889 12.8599 30.7731L11.8101 31.298C10.9141 31.746 10.3702 32.5087 10.2531 33.3866L9.89674 36.0592C9.72771 36.0377 9.56343 36.1411 9.51412 36.3098L9.41217 36.659C9.35759 36.846 9.46495 37.0417 9.65188 37.0963L10.4135 37.3185V38.9311C10.4135 39.5215 10.8921 40.0001 11.4825 40.0001H13.6471H25.4057H27.5169C28.1073 40.0001 28.5859 39.5215 28.5859 38.9311V37.334L29.4009 37.0963C29.5879 37.0417 29.6953 36.8459 29.6407 36.6589Z" fill="#FFD7A3"/>
<path d="M22.7066 27.3057H16.2928V29.0743C16.2928 29.4546 16.0912 29.7993 15.7749 29.9896C20.2462 30.7621 22.7066 27.3057 22.7066 27.3057Z" fill="#FDC88E"/>
<path d="M29.227 36.5883L28.8001 33.3864C28.683 32.5084 28.1385 31.7454 27.3463 31.3493L26.195 30.7737C26 30.6761 25.7723 30.7879 25.715 30.9983C24.9741 33.7216 22.4846 35.7242 19.5266 35.7242C16.5679 35.7242 14.0779 33.7206 13.3377 30.9962C13.2807 30.7869 13.0542 30.6757 12.8602 30.7728L11.8104 31.2977C10.9144 31.7456 10.3705 32.5084 10.2534 33.3863L9.81836 36.6491C11.2304 37.1353 13.6475 37.8619 13.6475 37.8619V39.9999H25.406V37.8619L29.227 36.5883Z" fill="#8DB9E2"/>
<path d="M13.6341 37.6987C13.6014 37.0631 13.3892 36.449 13.0059 35.9379L10.4968 32.5923C10.3756 32.8418 10.2905 33.1073 10.2532 33.3865L9.82959 36.564L13.6341 37.6987Z" fill="#6AA2DE"/>
<path d="M9.41217 36.6587C9.35759 36.8457 9.46495 37.0416 9.65188 37.0961L13.6471 38.2615V37.8619C13.6471 37.6094 13.6074 37.3621 13.5495 37.1195L9.95133 36.0699C9.76439 36.0153 9.56864 36.1226 9.51412 36.3096L9.41217 36.6587Z" fill="#4E87BB"/>
<path d="M25.4189 37.6987C25.4516 37.0631 25.6638 36.449 26.0471 35.9379L28.5563 32.5923C28.6774 32.8418 28.7625 33.1073 28.7998 33.3865L29.2235 36.564L25.4189 37.6987Z" fill="#6AA2DE"/>
<path d="M29.6412 36.6587C29.6958 36.8457 29.5884 37.0416 29.4015 37.0961L25.4062 38.2615V37.8619C25.4062 37.6094 25.4459 37.3621 25.5039 37.1195L29.102 36.0699C29.2889 36.0153 29.4847 36.1226 29.5392 36.3096L29.6412 36.6587Z" fill="#4E87BB"/>
<path d="M10.9481 18.6206C9.3447 18.6206 6.13781 19.2219 6.13781 23.9654C6.13781 28.7089 5.06885 34.6551 5.06885 34.6551C5.06885 34.6551 10.4137 34.0888 10.4137 27.7068C10.4137 21.7607 11.4826 20.7585 11.4826 20.7585L10.9481 18.6206Z" fill="#9D6E48"/>
<path d="M10.4137 27.707C10.4137 21.7609 11.4826 20.7587 11.4826 20.7587L10.4137 19.1553C9.79567 19.2388 7.43032 19.2557 7.74126 23.4311C8.05306 27.6179 9.61194 31.8492 5.06885 34.6552C5.06885 34.6552 10.4137 34.089 10.4137 27.707Z" fill="#8D5F3D"/>
<path d="M11.5814 20.2713L10.9165 18.4383C10.8158 18.1608 10.5092 18.0174 10.2317 18.1181C9.95428 18.2188 9.8109 18.5253 9.91159 18.8029L10.5765 20.6359C10.6772 20.9133 10.9838 21.0567 11.2613 20.956C11.5387 20.8553 11.6821 20.5488 11.5814 20.2713Z" fill="#6AA2DE"/>
<path d="M28.0516 18.6206C29.655 18.6206 32.8619 19.2219 32.8619 23.9654C32.8619 28.7089 33.9309 34.6551 33.9309 34.6551C33.9309 34.6551 28.5861 34.0888 28.5861 27.7068C28.5861 21.7607 27.5171 20.7585 27.5171 20.7585L28.0516 18.6206Z" fill="#9D6E48"/>
<path d="M28.5861 27.707C28.5861 21.7609 27.5171 20.7587 27.5171 20.7587L28.5861 19.1553C29.204 19.2388 31.5694 19.2557 31.2585 23.4311C30.9467 27.6179 29.3878 31.8492 33.9309 34.6552C33.9309 34.6552 28.5861 34.089 28.5861 27.707Z" fill="#8D5F3D"/>
<path d="M27.4189 20.2713L28.0839 18.4383C28.1846 18.1608 28.4912 18.0174 28.7686 18.1181C29.0461 18.2188 29.1895 18.5253 29.0888 18.8029L28.4238 20.6359C28.3231 20.9133 28.0165 21.0567 27.7391 20.956C27.4615 20.8553 27.3182 20.5488 27.4189 20.2713Z" fill="#6AA2DE"/>
<path d="M26.9825 19.6897V18.6208C26.9825 17.1449 25.786 14.8794 24.3101 14.8794H14.6894C13.2135 14.8794 12.017 17.1449 12.017 18.6208V19.6895C11.1314 19.6895 10.4136 20.4073 10.4136 21.2929C10.4136 22.1785 11.1314 22.8964 12.017 22.8964V23.4311C12.017 24.7257 12.7954 25.8934 13.9905 26.3913L17.4439 27.8303C18.0953 28.1017 18.794 28.2414 19.4997 28.2414C20.2053 28.2414 20.904 28.1017 21.5554 27.8303L25.0091 26.3913C26.2041 25.8934 26.9825 24.7257 26.9825 23.4311V22.8966C27.8681 22.8966 28.586 22.1787 28.586 21.2932C28.586 20.4076 27.8681 19.6897 26.9825 19.6897Z" fill="#FFE1B2"/>
<path d="M15.7586 21.8276C15.4646 21.8276 15.2241 21.587 15.2241 21.2931V20.7586C15.2241 20.4646 15.4646 20.2241 15.7586 20.2241C16.0526 20.2241 16.2931 20.4646 16.2931 20.7586V21.2931C16.2931 21.587 16.0526 21.8276 15.7586 21.8276Z" fill="#623F33"/>
<path d="M23.2415 21.8276C22.9475 21.8276 22.707 21.587 22.707 21.2931V20.7586C22.707 20.4646 22.9475 20.2241 23.2415 20.2241C23.5355 20.2241 23.776 20.4646 23.776 20.7586V21.2931C23.776 21.587 23.5355 21.8276 23.2415 21.8276Z" fill="#623F33"/>
<path d="M19.4996 25.5835C18.5494 25.5835 17.6606 25.3497 17.0611 24.9418C16.8171 24.7758 16.7536 24.4433 16.9199 24.1993C17.0856 23.9556 17.4184 23.8921 17.6624 24.0582C18.0825 24.3439 18.7694 24.5146 19.4996 24.5146C20.2299 24.5146 20.9167 24.3439 21.3369 24.0582C21.5814 23.8917 21.9134 23.9553 22.0794 24.1993C22.2456 24.4433 22.1822 24.7758 21.9382 24.9418C21.3389 25.3497 20.4499 25.5835 19.4996 25.5835Z" fill="#E4B07B"/>
<path d="M19.0353 14.812C18.9428 17.701 12.017 19.6894 12.017 19.6894C11.1314 19.6894 10.4136 20.4073 10.4136 21.2929C10.4136 22.1784 11.1314 22.8963 12.017 22.8963V23.4308C12.017 24.7254 12.7954 25.8931 13.9905 26.391L17.4439 27.83C17.6129 27.9004 17.7854 27.9611 17.9601 28.0136C16.4339 26.8972 15.418 25.9211 14.8227 25.283C14.3896 24.8187 14.1549 24.2059 14.1549 23.571V20.5838C15.6849 20.0498 19.9793 18.2957 20.0342 15.4136C20.0384 15.1952 20.0353 14.9952 20.026 14.812H19.0353Z" fill="#FFD7A3"/>
<path d="M22.172 9C20.435 9 19.4996 9.53448 19.4996 9.53448C19.4996 9.53448 18.5643 9 16.8272 9C15.0902 9 8.4982 12.3442 10.9479 20.0942C10.9479 20.0942 19.4996 18.5761 19.4996 14.8793C19.4996 18.5761 28.0513 20.0942 28.0513 20.0942C30.5011 12.3442 23.9091 9 22.172 9Z" fill="#9D6E48"/>
<path d="M19.4996 9.53475V9.53448C19.4996 9.53448 18.5643 9 16.8272 9C15.0901 9 8.49824 12.3442 10.9479 20.0942C10.9479 20.0942 11.9831 19.91 13.3324 19.5149C11.8224 12.5655 17.8422 9.54009 19.4996 9.53475Z" fill="#8D5F3D"/>
<path d="M19.4998 39.4654C19.795 39.4654 20.0343 39.2262 20.0343 38.931C20.0343 38.6358 19.795 38.3965 19.4998 38.3965C19.2046 38.3965 18.9653 38.6358 18.9653 38.931C18.9653 39.2262 19.2046 39.4654 19.4998 39.4654Z" fill="#FF8C51"/>
<path d="M15.2239 39.4654C15.5191 39.4654 15.7584 39.2262 15.7584 38.931C15.7584 38.6358 15.5191 38.3965 15.2239 38.3965C14.9287 38.3965 14.6895 38.6358 14.6895 38.931C14.6895 39.2262 14.9287 39.4654 15.2239 39.4654Z" fill="#FF8C51"/>
<path d="M23.7757 39.4654C24.0709 39.4654 24.3102 39.2262 24.3102 38.931C24.3102 38.6358 24.0709 38.3965 23.7757 38.3965C23.4805 38.3965 23.2412 38.6358 23.2412 38.931C23.2412 39.2262 23.4805 39.4654 23.7757 39.4654Z" fill="#FF8C51"/>
<path d="M21.638 39.4654C21.9332 39.4654 22.1725 39.2262 22.1725 38.931C22.1725 38.6358 21.9332 38.3965 21.638 38.3965C21.3428 38.3965 21.1035 38.6358 21.1035 38.931C21.1035 39.2262 21.3428 39.4654 21.638 39.4654Z" fill="#FFC84A"/>
<path d="M17.3621 39.4654C17.6573 39.4654 17.8966 39.2262 17.8966 38.931C17.8966 38.6358 17.6573 38.3965 17.3621 38.3965C17.0669 38.3965 16.8276 38.6358 16.8276 38.931C16.8276 39.2262 17.0669 39.4654 17.3621 39.4654Z" fill="#FFC84A"/>
<path d="M20.5692 37.8619C20.8643 37.8619 21.1036 37.6226 21.1036 37.3275C21.1036 37.0323 20.8643 36.793 20.5692 36.793C20.274 36.793 20.0347 37.0323 20.0347 37.3275C20.0347 37.6226 20.274 37.8619 20.5692 37.8619Z" fill="#FFC84A"/>
<path d="M16.2928 37.8619C16.588 37.8619 16.8273 37.6226 16.8273 37.3275C16.8273 37.0323 16.588 36.793 16.2928 36.793C15.9976 36.793 15.7583 37.0323 15.7583 37.3275C15.7583 37.6226 15.9976 37.8619 16.2928 37.8619Z" fill="#FFC84A"/>
<path d="M24.8445 37.8619C25.1397 37.8619 25.379 37.6226 25.379 37.3275C25.379 37.0323 25.1397 36.793 24.8445 36.793C24.5494 36.793 24.3101 37.0323 24.3101 37.3275C24.3101 37.6226 24.5494 37.8619 24.8445 37.8619Z" fill="#FFC84A"/>
<path d="M14.1551 37.8619C14.4503 37.8619 14.6896 37.6226 14.6896 37.3275C14.6896 37.0323 14.4503 36.793 14.1551 36.793C13.8599 36.793 13.6206 37.0323 13.6206 37.3275C13.6206 37.6226 13.8599 37.8619 14.1551 37.8619Z" fill="#FF8C51"/>
<path d="M22.7068 37.8619C23.002 37.8619 23.2413 37.6226 23.2413 37.3275C23.2413 37.0323 23.002 36.793 22.7068 36.793C22.4117 36.793 22.1724 37.0323 22.1724 37.3275C22.1724 37.6226 22.4117 37.8619 22.7068 37.8619Z" fill="#FF8C51"/>
<path d="M18.431 37.8619C18.7262 37.8619 18.9654 37.6226 18.9654 37.3275C18.9654 37.0323 18.7262 36.793 18.431 36.793C18.1358 36.793 17.8965 37.0323 17.8965 37.3275C17.8965 37.6226 18.1358 37.8619 18.431 37.8619Z" fill="#FF8C51"/>
</svg>
