<svg width="40" height="40" viewBox="0 0 40 40" fill="none" xmlns="http://www.w3.org/2000/svg">
<rect width="40" height="40" rx="12" fill="white"/>
<path d="M30.1807 37.2525L30.1322 36.8158C30.113 36.6431 29.9574 36.5186 29.7847 36.5378L29.7575 36.5408L29.288 32.7851C29.1859 31.9682 28.6237 31.2824 27.8427 31.0221L24.842 30.0218C24.5854 29.9363 24.3043 30.0547 24.1906 30.3001C24.1854 30.3113 24.18 30.3226 24.1748 30.3339L23.4381 30.0883C23.0016 29.9428 22.7072 29.5343 22.7072 29.0742V27.3504L25.0096 26.3911C26.2045 25.8933 26.9829 24.7256 26.9829 23.431V22.8965C27.8685 22.8965 28.5864 22.1786 28.5864 21.2931C28.5864 20.9247 28.4618 20.5856 28.2531 20.3149C28.5744 18.7237 29.1597 15.6239 29.1189 14.3448C29.0915 13.4896 28.55 12.3448 26.9809 11.6724C24.1764 10.4704 20.6602 10.1138 19.5002 9.00167V9C19.4999 9.00027 19.4995 9.00053 19.4992 9.0008C19.4989 9.00053 19.4985 9.00027 19.4982 9V9.00167C18.3382 10.1138 14.822 10.4704 12.0175 11.6724C10.4484 12.3448 9.90689 13.4896 9.87956 14.3448C9.83867 15.6244 10.4245 18.7264 10.7458 20.317C10.5379 20.5873 10.414 20.9257 10.414 21.2931C10.414 22.1786 11.1319 22.8965 12.0175 22.8965V23.431C12.0175 24.7256 12.7959 25.8932 13.9909 26.3912L16.2933 27.3506V29.0744C16.2933 29.5345 15.9989 29.9429 15.5624 30.0885L14.8258 30.3341C14.8206 30.3228 14.8152 30.3115 14.8099 30.3002C14.6962 30.0549 14.4151 29.9364 14.1585 30.0219L11.1578 31.0222C10.3768 31.2826 9.81462 31.9683 9.71254 32.7852L9.24306 36.5409L9.21587 36.5379C9.0431 36.5187 8.88757 36.6432 8.86832 36.816L8.81982 37.2526C8.80065 37.4253 8.92511 37.5809 9.09782 37.6001L9.87963 37.687V38.931C9.87963 39.5214 10.3582 40 10.9486 40H13.621H25.3796H28.052C28.6424 40 29.1209 39.5214 29.1209 38.931V37.687L29.9027 37.6001C30.0754 37.5808 30.1999 37.4252 30.1807 37.2525Z" fill="#F6B47B"/>
<path d="M16.2929 27.3062V29.0745C16.2929 29.4548 16.0913 29.7995 15.7749 29.9898C20.2462 30.7624 22.7066 27.3062 22.7066 27.3062H16.2929Z" fill="#E2A071"/>
<path d="M29.1188 14.3448C29.0914 13.4896 28.5499 12.3448 26.9808 11.6724C24.1763 10.4704 20.6601 10.1138 19.5001 9.00167V9C19.4999 9.00027 19.4994 9.00053 19.4991 9.0008C19.4988 9.00053 19.4984 9.00027 19.4981 9V9.00167C18.3382 10.1138 14.8219 10.4704 12.0174 11.6724C10.4483 12.3448 9.9068 13.4896 9.87947 14.3448C9.82335 16.1014 10.9484 21.2931 10.9484 21.2931H28.0498C28.0498 21.2931 29.1749 16.1014 29.1188 14.3448Z" fill="#9D6E48"/>
<path d="M19.4981 9V9.00167C18.3382 10.1138 14.8219 10.4704 12.0174 11.6724C10.4483 12.3448 9.9068 13.4896 9.87947 14.3448C9.82335 16.1014 10.9484 21.2931 10.9484 21.2931H15.7588C15.7588 21.2931 15.7588 18.1632 15.7588 16.4827C15.7588 12.9195 19.5001 11.227 19.5001 9C19.4999 9.00027 19.4994 9.00053 19.4991 9.0008C19.4989 9.00053 19.4984 9.00027 19.4981 9Z" fill="#8D5F3D"/>
<path d="M29.2876 32.7852C29.1855 31.9682 28.6233 31.2825 27.8423 31.0221L24.8416 30.0219C24.585 29.9363 24.3039 30.0548 24.1901 30.3002C23.4485 31.9 22.4 33.6408 19.4998 35.724C16.5996 33.6408 15.5511 31.9 14.8094 30.3001C14.6957 30.0547 14.4146 29.9363 14.158 30.0218L11.1573 31.0221C10.3762 31.2824 9.81406 31.9682 9.71197 32.7851L9.20361 36.852L13.6205 37.3275V39.9999H25.3791V37.3275L29.7959 36.852L29.2876 32.7852Z" fill="#4F6E7F"/>
<path d="M26.9825 19.6896V18.6206C26.9825 17.1447 25.786 15.9482 24.3101 15.9482H14.6894C13.2135 15.9482 12.017 17.1447 12.017 18.6206V19.6896C11.1314 19.6896 10.4136 20.4075 10.4136 21.293C10.4136 22.1786 11.1314 22.8965 12.017 22.8965V23.431C12.017 24.7255 12.7954 25.8932 13.9904 26.3912L17.4439 27.8301C18.0953 28.1016 18.794 28.2413 19.4997 28.2413C20.2053 28.2413 20.904 28.1016 21.5554 27.8301L25.009 26.3911C26.2041 25.8933 26.9825 24.7256 26.9825 23.431V22.8965C27.868 22.8965 28.5859 22.1786 28.5859 21.293C28.5859 20.4075 27.868 19.6896 26.9825 19.6896Z" fill="#FDC88E"/>
<path d="M15.7586 21.8276C15.4646 21.8276 15.2241 21.587 15.2241 21.2931V20.7586C15.2241 20.4646 15.4646 20.2241 15.7586 20.2241C16.0526 20.2241 16.2931 20.4646 16.2931 20.7586V21.2931C16.2931 21.587 16.0526 21.8276 15.7586 21.8276Z" fill="#623F33"/>
<path d="M23.241 21.8276C22.9471 21.8276 22.7065 21.587 22.7065 21.2931V20.7586C22.7065 20.4646 22.9471 20.2241 23.241 20.2241C23.535 20.2241 23.7755 20.4646 23.7755 20.7586V21.2931C23.7755 21.587 23.535 21.8276 23.241 21.8276Z" fill="#623F33"/>
<path d="M19.4996 25.5835C18.5494 25.5835 17.6606 25.3497 17.0611 24.9418C16.8171 24.7758 16.7536 24.4433 16.9199 24.1993C17.0856 23.9556 17.4184 23.8921 17.6624 24.0582C18.0825 24.3439 18.7694 24.5146 19.4996 24.5146C20.2299 24.5146 20.9167 24.3439 21.3369 24.0582C21.5814 23.8917 21.9134 23.9553 22.0794 24.1993C22.2456 24.4433 22.1822 24.7758 21.9382 24.9418C21.3388 25.3497 20.4499 25.5835 19.4996 25.5835Z" fill="#E2A071"/>
<path d="M14.8227 25.283C14.3896 24.8187 14.1549 24.206 14.1549 23.571V16.002C12.9352 16.2496 12.017 17.3277 12.017 18.6205V19.6895C11.1314 19.6895 10.4136 20.4073 10.4136 21.2929C10.4136 22.1785 11.1314 22.8963 12.017 22.8963V23.4308C12.017 24.7255 12.7954 25.8931 13.9905 26.391L17.4439 27.83C17.6129 27.9004 17.7854 27.9611 17.9601 28.0137C16.4338 26.8971 15.4179 25.9212 14.8227 25.283Z" fill="#F6B47B"/>
<path d="M13.6205 37.7309V36.5213C13.6205 36.007 13.4352 35.5101 13.0985 35.1214L10.1576 31.7266C9.92032 32.027 9.76145 32.39 9.71207 32.785L9.15381 37.2511C10.0039 37.3021 12.265 37.567 13.6205 37.7309Z" fill="#33546A"/>
<path d="M13.6206 37.027L9.21538 36.5376C9.04261 36.5184 8.88708 36.6429 8.86784 36.8156L8.81933 37.2523C8.80016 37.425 8.92462 37.5806 9.09733 37.5997L13.6206 38.1023V37.027Z" fill="#4F6E7F"/>
<path d="M25.3794 37.7309V36.5213C25.3794 36.007 25.5647 35.5101 25.9014 35.1214L28.8423 31.7266C29.0796 32.027 29.2385 32.39 29.2879 32.785L29.8461 37.2511C28.9961 37.3021 26.7349 37.567 25.3794 37.7309Z" fill="#33546A"/>
<path d="M25.3794 37.027L29.7846 36.5376C29.9574 36.5184 30.1129 36.6429 30.1321 36.8156L30.1806 37.2523C30.1998 37.425 30.0753 37.5806 29.9026 37.5997L25.3794 38.1023V37.027Z" fill="#4F6E7F"/>
<path d="M22.0332 15.6812C22.7831 16.2121 24.4222 17.4938 25.3788 19.1553C25.3788 19.1553 25.4023 17.2877 24.3966 15.6812H22.0332Z" fill="#9D6E48"/>
</svg>
