<svg width="32" height="32" viewBox="0 0 32 32" fill="none" xmlns="http://www.w3.org/2000/svg">
<rect width="32" height="32" rx="6" fill="white"/>
<path d="M22.1383 10.9866C22.7157 11.564 22.7252 12.4972 22.1596 13.0862L16.7427 18.7273C16.4674 19.014 16.0896 19.1797 15.6922 19.188L13.4169 19.2358L13.465 16.9452C13.4731 16.5569 13.6316 16.1868 13.907 15.913L19.4441 10.4076C20.0303 9.82467 20.9777 9.82602 21.5623 10.4106L22.1383 10.9866Z" fill="#3699FF"/>
<path opacity="0.3" d="M16.6002 9.3335C16.9684 9.3335 17.2668 9.63197 17.2668 10.0002C17.2668 10.3684 16.9684 10.6668 16.6002 10.6668H12.0002C11.2638 10.6668 10.6668 11.2638 10.6668 12.0002V20.0002C10.6668 20.7365 11.2638 21.3335 12.0002 21.3335H20.0002C20.7365 21.3335 21.3335 20.7365 21.3335 20.0002V16.6668C21.3335 16.2986 21.632 16.0002 22.0002 16.0002C22.3684 16.0002 22.6668 16.2986 22.6668 16.6668V20.0002C22.6668 21.4729 21.4729 22.6668 20.0002 22.6668H12.0002C10.5274 22.6668 9.3335 21.4729 9.3335 20.0002V12.0002C9.3335 10.5274 10.5274 9.3335 12.0002 9.3335H16.6002Z" fill="#3699FF"/>
</svg>
